<?xml version="1.0" standalone="no"?>
<!DOCTYPE svg PUBLIC "-//W3C//DTD SVG 1.1//EN" "http://www.w3.org/Graphics/SVG/1.1/DTD/svg11.dtd" >
<svg xmlns="http://www.w3.org/2000/svg">
<metadata>Generated by IcoMoon</metadata>
<defs>
<font id="icomoon" horiz-adv-x="1024">
<font-face units-per-em="1024" ascent="960" descent="-64" />
<missing-glyph horiz-adv-x="1024" />
<glyph unicode="&#x20;" horiz-adv-x="512" d="" />
<glyph unicode="&#xe900;" glyph-name="Down" d="M186.208 730.624l9.045-9.024c0.651-0.725 1.077-1.557 1.696-2.283l315.413-315.072 311.424 311.061c0.107 0.181 12.619 14.421 19.925 20.085 0.181 0.149 0.363 0.256 0.576 0.363 18.816 14.485 42.315 23.232 67.925 23.232 28.533 0 54.464-10.763 74.208-28.363l9.088-9.024c17.568-19.723 28.384-45.664 28.384-74.165 0-29.301-11.424-55.925-29.941-75.829l-1.301-1.301c0.064-0.032 0.107-0.032 0.139-0.064 0 0-409.515-409.611-412.149-411.669-18.88-14.635-42.528-23.413-68.277-23.413-25.717 0-49.333 8.779-68.213 23.413-7.52 5.781-404.192 403.723-404.192 403.723l-13.205 13.184c-16.459 19.435-26.443 44.501-26.443 71.957 0 25.824 8.864 49.525 23.627 68.416 5.675 7.296 12.256 13.877 19.563 19.541 18.912 14.741 42.635 23.595 68.501 23.595 27.52 0 52.469-10.187 71.936-26.667 0.715-0.608 1.547-1.077 2.272-1.696z" />
<glyph unicode="&#xe901;" glyph-name="User" d="M512 960c-282.773 0-512-229.227-512-512s229.227-512 512-512c282.773 0 512 229.227 512 512s-229.227 512-512 512zM512 780c74.037 0 134.059-70.933 134.059-158.443 0-87.499-60.021-158.432-134.059-158.432s-134.059 70.933-134.059 158.432c0 87.509 60.021 158.443 134.059 158.443zM738.923 156h-453.845c-22.752 0-41.205 18.453-41.205 41.205 0 106.475 120.043 192.8 268.128 192.8s268.128-86.325 268.128-192.8c0-22.752-18.453-41.205-41.205-41.205z" />
<glyph unicode="&#xe902;" glyph-name="Start-Time" d="M0 448c0-282.773 229.227-512 512-512s512 229.227 512 512c0 282.773-229.227 512-512 512s-512-229.227-512-512zM452 780c0 33.141 26.859 60 60 60s60-26.859 60-60v-297.355l153.6-88.683c28.693-16.565 38.528-53.269 21.963-81.963-16.576-28.693-53.269-38.528-81.963-21.963l-183.605 106.005c-19.221 11.104-29.973 31.243-29.984 51.957h-0.011z" />
<glyph unicode="&#xe903;" glyph-name="Sreach" d="M422.912 142.304c-8 0-15.989 0.235-23.968 0.725-7.979 0.48-15.936 1.216-23.872 2.187-7.947 0.981-15.84 2.197-23.701 3.659s-15.669 3.157-23.424 5.099c-7.765 1.941-15.456 4.117-23.072 6.528-7.627 2.411-15.168 5.056-22.635 7.925-7.456 2.88-14.827 5.984-22.101 9.312-7.264 3.328-14.432 6.869-21.483 10.635-7.051 3.776-13.984 7.755-20.789 11.947-6.816 4.192-13.483 8.587-20.021 13.184-6.539 4.608-12.928 9.408-19.179 14.4-6.24 4.992-12.331 10.176-18.251 15.541-5.931 5.376-11.691 10.923-17.269 16.64-5.589 5.717-10.997 11.605-16.213 17.664-5.227 6.048-10.261 12.256-15.104 18.624-4.843 6.357-9.483 12.864-13.931 19.52-4.448 6.645-8.683 13.419-12.704 20.331-4.032 6.901-7.84 13.931-11.435 21.067-3.595 7.147-6.976 14.389-10.123 21.739-3.157 7.349-6.080 14.795-8.768 22.315-2.699 7.531-5.163 15.136-7.381 22.816-2.229 7.68-4.224 15.424-5.973 23.221-1.749 7.808-3.264 15.648-4.533 23.541-1.269 7.904-2.304 15.829-3.083 23.787-0.789 7.957-1.323 15.925-1.621 23.915-0.288 7.989-0.341 15.989-0.149 23.979 0.203 8 0.64 15.979 1.333 23.947 0.683 7.957 1.611 15.904 2.784 23.808 1.173 7.915 2.592 15.776 4.245 23.605 1.653 7.819 3.552 15.584 5.685 23.285 2.133 7.712 4.501 15.339 7.104 22.901s5.429 15.040 8.491 22.421c3.061 7.392 6.347 14.677 9.856 21.867 3.509 7.179 7.232 14.251 11.179 21.205 3.936 6.965 8.096 13.792 12.459 20.491s8.917 13.259 13.685 19.691c4.768 6.421 9.717 12.683 14.869 18.805 5.152 6.112 10.485 12.064 16 17.856s11.2 11.403 17.067 16.853c5.856 5.44 11.872 10.688 18.059 15.765 6.187 5.067 12.512 9.941 18.997 14.624s13.099 9.163 19.861 13.44c6.752 4.277 13.632 8.341 20.64 12.192s14.123 7.488 21.355 10.901c7.232 3.424 14.56 6.613 21.984 9.579s14.933 5.707 22.528 8.203c7.595 2.507 15.253 4.779 22.987 6.816s15.52 3.829 23.371 5.387c7.84 1.557 15.723 2.869 23.648 3.947 7.925 1.067 15.872 1.899 23.851 2.485 7.968 0.587 15.957 0.917 23.947 1.013 8 0.096 15.989-0.053 23.979-0.448s15.957-1.045 23.904-1.931c7.947-0.885 15.851-2.005 23.733-3.381 7.872-1.365 15.701-2.987 23.488-4.832 7.776-1.856 15.488-3.947 23.136-6.272 7.659-2.325 15.221-4.875 22.72-7.669 7.488-2.795 14.891-5.813 22.197-9.056 7.317-3.243 14.517-6.709 21.611-10.4 7.093-3.68 14.069-7.584 20.928-11.701s13.579-8.437 20.171-12.96c6.592-4.533 13.035-9.259 19.328-14.176 6.304-4.928 12.448-10.037 18.432-15.339 5.995-5.301 11.808-10.784 17.461-16.437 6.784-6.784 13.312-13.803 19.584-21.067s12.267-14.741 17.984-22.443c5.717-7.712 11.147-15.616 16.288-23.712 5.131-8.107 9.963-16.384 14.496-24.843 4.523-8.469 8.736-17.077 12.619-25.845 3.893-8.779 7.456-17.675 10.699-26.709 3.232-9.035 6.133-18.165 8.693-27.413s4.779-18.581 6.656-27.989c1.867-9.408 3.392-18.869 4.576-28.395 1.173-9.525 1.995-19.072 2.464-28.661 0.48-9.579 0.597-19.168 0.363-28.757s-0.821-19.157-1.76-28.715c-0.939-9.547-2.229-19.040-3.872-28.501-1.643-9.451-3.627-18.827-5.963-28.139-2.325-9.301-5.003-18.517-8.011-27.627s-6.347-18.091-10.027-26.955c-3.669-8.864-7.659-17.579-11.979-26.155-4.32-8.565-8.939-16.96-13.877-25.195-4.928-8.224-10.165-16.267-15.691-24.107s-11.328-15.467-17.419-22.88c-6.091-7.413-12.448-14.603-19.061-21.547-6.624-6.944-13.483-13.643-20.597-20.075-7.115-6.443-14.453-12.619-22.016-18.517s-15.339-11.509-23.317-16.832c-7.979-5.333-16.149-10.357-24.501-15.083-8.341-4.725-16.864-9.131-25.536-13.227s-17.493-7.872-26.443-11.317c-8.949-3.445-18.027-6.56-27.211-9.344-9.173-2.773-18.453-5.216-27.819-7.307-9.355-2.101-18.784-3.851-28.277-5.248s-19.019-2.453-28.587-3.147c-9.568-0.704-19.157-1.045-28.747-1.035zM422.912 837.632c-5.824 0.021-11.648-0.139-17.461-0.459s-11.616-0.811-17.408-1.461c-5.781-0.651-11.552-1.472-17.291-2.453s-11.445-2.133-17.12-3.445c-5.675-1.301-11.307-2.773-16.896-4.416-5.589-1.632-11.136-3.424-16.619-5.376-5.493-1.941-10.912-4.053-16.288-6.315-5.365-2.261-10.656-4.672-15.893-7.243-5.227-2.56-10.379-5.28-15.445-8.139-5.077-2.859-10.059-5.867-14.965-9.013-4.896-3.147-9.707-6.432-14.421-9.856-4.715-3.413-9.323-6.976-13.824-10.656-4.512-3.691-8.917-7.499-13.205-11.435-4.288-3.947-8.459-8-12.523-12.181-4.053-4.181-7.989-8.469-11.808-12.875-3.808-4.395-7.488-8.907-11.040-13.525-3.552-4.608-6.976-9.323-10.261-14.133s-6.421-9.717-9.429-14.699c-2.997-4.992-5.856-10.069-8.565-15.221s-5.28-10.379-7.691-15.68c-2.411-5.301-4.672-10.667-6.773-16.096-2.101-5.44-4.053-10.923-5.845-16.469-1.781-5.536-3.413-11.125-4.885-16.757-1.472-5.643-2.773-11.317-3.925-17.024-1.141-5.707-2.123-11.445-2.933-17.216-0.821-5.771-1.472-11.552-1.952-17.355s-0.8-11.616-0.949-17.44c-0.149-5.824-0.139-11.648 0.043-17.461 0.181-5.824 0.533-11.637 1.045-17.44 0.523-5.803 1.205-11.584 2.048-17.344 0.853-5.76 1.856-11.499 3.040-17.195 1.173-5.707 2.507-11.371 4.011-17.003s3.157-11.211 4.981-16.736c1.824-5.536 3.797-11.008 5.931-16.427s4.427-10.773 6.869-16.064c2.443-5.291 5.024-10.496 7.765-15.637s5.632-10.197 8.661-15.168c3.029-4.981 6.197-9.867 9.504-14.656s6.752-9.483 10.336-14.080c3.573-4.597 7.285-9.088 11.125-13.461 3.829-4.384 7.787-8.651 11.872-12.811 4.075-4.16 8.277-8.192 12.587-12.107s8.736-7.701 13.259-11.36c4.533-3.669 9.163-7.2 13.899-10.592 4.725-3.392 9.557-6.656 14.475-9.771 4.917-3.125 9.92-6.101 15.008-8.928 5.088-2.837 10.251-5.525 15.499-8.053 5.237-2.539 10.549-4.928 15.925-7.157 5.387-2.229 10.827-4.309 16.32-6.229 5.504-1.92 11.051-3.68 16.651-5.291 5.6-1.6 11.232-3.040 16.917-4.32s11.392-2.389 17.141-3.349c5.749-0.949 11.52-1.739 17.301-2.357 5.792-0.619 11.595-1.077 17.419-1.365 5.813-0.288 11.637-0.405 17.461-0.363s11.637 0.256 17.451 0.64c5.813 0.373 11.605 0.917 17.387 1.632 5.781 0.704 11.541 1.579 17.269 2.624s11.424 2.24 17.088 3.616c5.664 1.365 11.275 2.891 16.853 4.576 5.579 1.696 11.093 3.541 16.565 5.547 5.461 2.005 10.869 4.171 16.213 6.485s10.624 4.779 15.819 7.392c5.205 2.624 10.325 5.387 15.371 8.299s10.005 5.963 14.869 9.163c4.875 3.189 9.643 6.528 14.325 9.995s9.259 7.072 13.728 10.795c4.469 3.733 8.832 7.595 13.077 11.573 4.256 3.979 8.384 8.085 12.405 12.299 4.011 4.213 7.904 8.544 11.68 12.992 3.765 4.437 7.403 8.981 10.912 13.632 3.499 4.651 6.869 9.397 10.112 14.24 3.232 4.843 6.325 9.771 9.28 14.795s5.76 10.123 8.416 15.307c2.667 5.173 5.173 10.432 7.531 15.755s4.565 10.709 6.613 16.171c2.048 5.451 3.947 10.955 5.675 16.512 1.739 5.557 3.307 11.168 4.725 16.811 1.408 5.653 2.667 11.339 3.755 17.067 1.088 5.717 2.005 11.467 2.763 17.237 0.757 5.781 1.355 11.573 1.781 17.376 0.427 5.813 0.683 11.627 0.779 17.451 0.085 5.824 0.011 11.648-0.224 17.461-0.245 5.824-0.651 11.627-1.227 17.419-0.576 5.803-1.312 11.573-2.219 17.333-0.907 5.749-1.973 11.467-3.2 17.163-1.237 5.696-2.635 11.349-4.192 16.96s-3.264 11.168-5.141 16.683c-1.877 5.515-3.915 10.976-6.101 16.373s-4.523 10.72-7.019 15.989c-2.496 5.259-5.141 10.453-7.925 15.563-2.795 5.109-5.728 10.133-8.811 15.083-3.083 4.939-6.293 9.792-9.653 14.549s-6.848 9.419-10.475 13.984c-3.627 4.555-7.371 9.003-11.253 13.355-3.883 4.341-7.883 8.565-12 12.683-7.040 7.040-14.389 13.707-22.080 20.021-7.68 6.315-15.659 12.235-23.925 17.76s-16.789 10.645-25.557 15.339c-8.768 4.693-17.739 8.939-26.933 12.757-9.184 3.808-18.528 7.157-28.043 10.059-9.515 2.891-19.147 5.312-28.907 7.264-9.749 1.952-19.573 3.413-29.472 4.395-9.899 0.992-19.819 1.483-29.76 1.493zM976.768-64c-5.685 0.021-11.147 1.131-16.384 3.328-5.248 2.197-9.877 5.301-13.877 9.333l-308.064 307.851c-1.995 1.995-3.776 4.16-5.344 6.507s-2.891 4.821-3.968 7.424c-1.077 2.613-1.899 5.301-2.443 8.064-0.555 2.763-0.832 5.557-0.832 8.384 0 2.816 0.277 5.611 0.832 8.373 0.544 2.773 1.365 5.461 2.443 8.064s2.4 5.077 3.968 7.424c1.568 2.347 3.349 4.512 5.344 6.507s4.171 3.776 6.507 5.344c2.347 1.568 4.821 2.891 7.435 3.968 2.603 1.088 5.291 1.899 8.053 2.453 2.773 0.544 5.557 0.821 8.384 0.821 2.816 0 5.611-0.277 8.384-0.821 2.763-0.555 5.451-1.365 8.053-2.453 2.603-1.077 5.088-2.4 7.424-3.968 2.347-1.568 4.523-3.349 6.517-5.344l307.84-308.053c1.483-1.493 2.848-3.083 4.096-4.779 1.259-1.696 2.379-3.477 3.36-5.333 0.992-1.856 1.835-3.776 2.539-5.76 0.715-1.984 1.269-4.011 1.675-6.069 0.405-2.069 0.661-4.149 0.768-6.251 0.096-2.101 0.043-4.203-0.16-6.304-0.203-2.091-0.565-4.16-1.077-6.197-0.512-2.048-1.163-4.043-1.973-5.984-0.8-1.941-1.749-3.819-2.827-5.632-1.077-1.803-2.283-3.52-3.616-5.152-1.333-1.621-2.784-3.147-4.341-4.565s-3.2-2.709-4.949-3.883c-1.749-1.173-3.573-2.219-5.472-3.125s-3.861-1.664-5.867-2.283c-2.016-0.619-4.064-1.088-6.144-1.397-2.080-0.32-4.171-0.48-6.283-0.491z" />
<glyph unicode="&#xe904;" glyph-name="Record" d="M512.149-63.787c-23.872 0-47.765 1.717-71.616 5.163-66.336 9.579-129.28 32.139-187.093 67.051s-107.061 80.107-146.389 134.325c-37.973 52.363-65.109 110.869-80.661 173.92-15.563 63.040-18.752 127.445-9.493 191.435 9.589 66.272 32.171 129.163 67.115 186.923 49.621 82.016 121.141 147.637 206.827 189.792 83.381 41.013 176.277 58.123 268.629 49.461 18.912-1.771 32.8-18.517 31.029-37.419-1.771-18.891-18.539-32.779-37.451-30.997-79.691 7.477-159.851-7.285-231.829-42.688-73.867-36.341-135.531-92.939-178.347-163.701-30.165-49.835-49.643-104.075-57.909-161.195-7.989-55.189-5.227-110.763 8.203-165.173 13.419-54.4 36.832-104.885 69.579-150.048 33.888-46.731 76.373-85.707 126.272-115.84 49.888-30.133 104.181-49.589 161.355-57.856 55.243-7.968 110.869-5.216 165.323 8.192 54.453 13.419 104.992 36.811 150.187 69.525 46.784 33.856 85.792 76.299 115.957 126.144 34.987 57.835 55.488 121.056 60.917 187.893 5.184 63.765-4.181 129.173-27.061 189.152-6.763 17.728 2.144 37.579 19.883 44.341 17.749 6.752 37.611-2.144 44.384-19.872 26.507-69.472 37.344-145.269 31.339-219.168-3.061-37.781-10.475-75.232-22.037-111.307-11.883-37.088-28.224-72.949-48.565-106.571-34.944-57.76-80.181-106.965-134.453-146.251-52.416-37.931-110.976-65.035-174.080-80.587-39.605-9.749-79.776-14.635-120.011-14.635zM387.989 161.013c-17.451 0-34.581 5.717-48.651 16.512-18.261 14.016-29.579 35.2-31.072 58.165l-6.229 96.181c-1.451 22.4 5.088 44.683 18.411 62.752l384.875 522.112c26.123 35.445 76.235 43.040 111.701 16.939l111.157-81.771c17.184-12.64 28.405-31.211 31.605-52.288 3.211-21.077-1.995-42.144-14.656-59.307l-384.043-520.992c-14.155-19.2-34.837-32.341-58.251-36.992l-99.232-19.755c-5.184-1.024-10.411-1.536-15.605-1.536zM769.653 880.501c-3.413 0-6.795-1.568-8.96-4.523l-384.875-522.112c-3.733-5.067-5.557-11.307-5.152-17.568l6.229-96.181c0.277-4.373 2.827-6.955 4.32-8.096s4.64-2.944 8.939-2.080l99.243 19.733c6.56 1.312 12.352 4.992 16.309 10.368l384.043 520.981c2.379 3.221 2.304 6.549 2.037 8.256-0.256 1.696-1.163 4.896-4.395 7.275l-111.157 81.781c-1.973 1.451-4.288 2.155-6.581 2.155zM855.947 657.461c-7.083 0-14.219 2.176-20.363 6.688l-161.771 119.029c-15.296 11.253-18.56 32.757-7.307 48.032 11.264 15.275 32.8 18.549 48.085 7.296l161.781-119.029c15.285-11.253 18.56-32.757 7.296-48.032-6.741-9.141-17.163-13.984-27.723-13.984z" />
<glyph unicode="&#xe905;" d="M-102.4 1062.4h1228.8v-1228.8h-1228.8v1228.8z" />
<glyph unicode="&#xe906;" d="M614.859 270.155l-82.4-59.445 60.597-43.723c-7.317-4.096-13.216-10.421-16.779-18.059l-64.736 46.699-64.736-46.699c-3.552 7.637-9.451 13.963-16.768 18.059l60.597 43.723-82.4 59.445h41.813l61.493-44.363 61.504 44.363z" />
<glyph unicode="&#xe907;" d="M410.539 156.907c13.707 0 24.811-11.104 24.811-24.811 0-13.696-11.104-24.8-24.811-24.8-13.696 0-24.811 11.104-24.811 24.8 0 13.707 11.115 24.811 24.811 24.811z" />
<glyph unicode="&#xe908;" d="M612.544 156.907c13.707 0 24.811-11.104 24.811-24.811 0-13.696-11.104-24.8-24.811-24.8s-24.811 11.104-24.811 24.8c0 13.707 11.104 24.811 24.811 24.811z" />
<glyph unicode="&#xe909;" d="M274.624 352.416h540.096v-67.104c-191.072 0-382.155-0.011-573.227-0.011-18.219 0-33.131 14.912-33.131 33.12v211.851c0 18.219 14.912 33.12 33.131 33.12s33.131-14.901 33.131-33.12z" />
<glyph unicode="&#xe90a;" d="M289.803 367.595h524.917v34.848c0 13.632-11.157 24.789-24.8 24.789h-500.117z" />
<glyph unicode="&#xe90b;" d="M289.803 442.411h81.088v33.995c0 18.699-15.307 33.995-34.005 33.995h-47.083z" />
<glyph unicode="&#xe90c;" d="M560.523 748.725c0-2.677-0.256-5.323-0.779-7.947s-1.291-5.173-2.315-7.648c-1.024-2.475-2.283-4.821-3.776-7.040-1.483-2.229-3.168-4.288-5.067-6.176-1.888-1.888-3.947-3.584-6.176-5.067-2.219-1.483-4.565-2.741-7.040-3.765s-5.024-1.792-7.648-2.315c-2.624-0.523-5.269-0.789-7.947-0.789s-5.333 0.267-7.957 0.789c-2.624 0.523-5.173 1.291-7.637 2.315-2.475 1.024-4.821 2.283-7.051 3.765s-4.288 3.179-6.176 5.067c-1.888 1.888-3.584 3.947-5.067 6.176-1.493 2.219-2.741 4.565-3.765 7.040s-1.803 5.024-2.325 7.648c-0.523 2.624-0.779 5.269-0.779 7.947s0.256 5.323 0.779 7.947c0.523 2.624 1.301 5.173 2.325 7.637 1.024 2.475 2.272 4.821 3.765 7.051 1.483 2.219 3.179 4.277 5.067 6.165 1.888 1.899 3.947 3.584 6.176 5.067 2.229 1.493 4.576 2.741 7.051 3.765 2.464 1.024 5.013 1.803 7.637 2.325s5.28 0.779 7.957 0.779c2.677 0 5.323-0.256 7.947-0.779s5.173-1.301 7.648-2.325c2.475-1.024 4.821-2.272 7.040-3.765 2.229-1.483 4.288-3.168 6.176-5.067 1.899-1.888 3.584-3.947 5.067-6.165 1.493-2.229 2.752-4.576 3.776-7.051 1.024-2.464 1.792-5.013 2.315-7.637s0.779-5.269 0.779-7.947z" />
<glyph unicode="&#xe90d;" d="M465.995 610.272h107.563c10.165 0 18.485-8.309 18.485-18.475v-18.485h-144.533v18.485c0 10.165 8.32 18.475 18.485 18.475z" />
<glyph unicode="&#xe90e;" d="M531.157 528.555c0 6.293-5.099 11.392-11.381 11.392-6.293 0-11.392-5.099-11.392-11.392v-52.853c0-6.283 5.099-11.381 11.392-11.381 6.283 0 11.381 5.099 11.381 11.381z" />
<glyph unicode="&#xe90f;" d="M560.789 550.261c-4.437 4.437-11.648 4.437-16.096 0-4.448-4.448-4.448-11.659 0-16.096l37.387-37.376c4.448-4.448 11.648-4.448 16.096 0s4.448 11.648 0 16.096z" />
<glyph unicode="&#xe910;" d="M494.859 534.165c4.448 4.437 4.448 11.648 0 16.096-4.448 4.437-11.659 4.437-16.107 0l-37.387-37.376c-4.437-4.448-4.437-11.648 0-16.096 4.448-4.448 11.659-4.448 16.107 0z" />
<glyph unicode="&#xe911;" d="M501.621 695.819v-50.475h36.309v50.475c-5.696-1.952-11.797-3.019-18.155-3.019s-12.459 1.067-18.155 3.019z" />
<glyph unicode="&#xe912;" d="M468.96 608.373h101.632v20.384c0 10.165-8.32 18.475-18.485 18.475h-64.661c-10.165 0-18.485-8.309-18.485-18.475z" />
<glyph unicode="&#xe913;" d="M575.712 748.725h153.024v40.736h-170.656c10.848-10.197 17.632-24.683 17.632-40.736z" />
<glyph unicode="&#xe914;" glyph-name="Delete" d="M934.101 781.792h-200.117v31.381c-0.011 4.8-0.256 9.589-0.725 14.368-0.48 4.779-1.184 9.515-2.133 14.219-0.939 4.715-2.101 9.365-3.499 13.952-1.397 4.597-3.019 9.109-4.853 13.547-1.845 4.427-3.893 8.768-6.155 12.992-2.272 4.235-4.736 8.352-7.403 12.341s-5.515 7.84-8.565 11.552c-3.040 3.712-6.261 7.264-9.653 10.656s-6.944 6.613-10.645 9.664c-3.712 3.040-7.563 5.899-11.541 8.576-3.989 2.667-8.096 5.131-12.331 7.392-4.224 2.272-8.555 4.32-12.992 6.165-4.427 1.835-8.939 3.456-13.525 4.853s-9.237 2.571-13.941 3.509c-4.704 0.949-9.44 1.653-14.219 2.133-4.768 0.48-9.557 0.715-14.357 0.725h-151.637c-4.8-0.011-9.589-0.245-14.357-0.725-4.779-0.48-9.515-1.184-14.219-2.133-4.704-0.939-9.344-2.112-13.941-3.509-4.587-1.397-9.099-3.019-13.525-4.853-4.427-1.845-8.757-3.893-12.992-6.165-4.224-2.261-8.341-4.725-12.32-7.392-3.989-2.677-7.84-5.536-11.552-8.576-3.701-3.051-7.253-6.272-10.645-9.664s-6.613-6.944-9.653-10.656c-3.040-3.712-5.899-7.563-8.565-11.552s-5.131-8.107-7.392-12.341c-2.272-4.224-4.32-8.565-6.155-12.992-1.845-4.437-3.456-8.949-4.853-13.547-1.397-4.587-2.571-9.237-3.509-13.952-0.939-4.704-1.653-9.44-2.133-14.219-0.469-4.779-0.715-9.568-0.725-14.368v-31.381h-200.117c-1.451 0-2.912-0.064-4.352-0.213-1.451-0.139-2.891-0.352-4.32-0.64s-2.837-0.64-4.235-1.056c-1.397-0.427-2.763-0.917-4.107-1.472-1.344-0.565-2.667-1.184-3.947-1.867-1.291-0.693-2.528-1.44-3.744-2.251s-2.379-1.675-3.509-2.603c-1.12-0.928-2.197-1.899-3.232-2.933-1.024-1.024-2.005-2.112-2.933-3.232-0.917-1.131-1.781-2.304-2.592-3.509-0.811-1.216-1.557-2.464-2.251-3.744-0.683-1.291-1.301-2.603-1.867-3.947-0.555-1.355-1.045-2.72-1.461-4.117-0.427-1.397-0.779-2.805-1.067-4.235-0.277-1.429-0.491-2.869-0.64-4.32-0.139-1.451-0.213-2.912-0.213-4.363 0-1.461 0.075-2.912 0.213-4.363 0.149-1.451 0.363-2.891 0.64-4.32 0.288-1.429 0.64-2.848 1.067-4.235 0.416-1.397 0.907-2.773 1.461-4.117 0.565-1.344 1.184-2.667 1.867-3.947 0.693-1.291 1.44-2.539 2.251-3.744 0.811-1.216 1.675-2.389 2.592-3.509 0.928-1.131 1.909-2.208 2.933-3.243 1.035-1.024 2.112-2.005 3.232-2.933 1.131-0.917 2.293-1.792 3.509-2.592 1.216-0.811 2.453-1.568 3.744-2.251 1.28-0.683 2.603-1.312 3.947-1.867s2.709-1.045 4.107-1.472c1.397-0.427 2.805-0.779 4.235-1.056 1.429-0.288 2.869-0.501 4.32-0.651 1.44-0.139 2.901-0.213 4.352-0.213h66.709v-609.28c0.011-4.832 0.245-9.643 0.725-14.453 0.48-4.8 1.195-9.568 2.144-14.304 0.949-4.725 2.123-9.408 3.531-14.027s3.029-9.152 4.885-13.611c1.845-4.459 3.915-8.811 6.197-13.067 2.272-4.256 4.757-8.395 7.435-12.405 2.688-4.011 5.557-7.872 8.629-11.605 3.061-3.733 6.293-7.296 9.707-10.709s6.987-6.645 10.72-9.707c3.733-3.061 7.605-5.931 11.616-8.608s8.139-5.163 12.395-7.435c4.256-2.272 8.619-4.331 13.077-6.176 4.448-1.845 8.992-3.467 13.6-4.864 4.619-1.408 9.291-2.571 14.027-3.52 4.725-0.939 9.493-1.643 14.293-2.112 4.8-0.48 9.611-0.715 14.443-0.715h416.907c4.821 0.011 9.632 0.256 14.421 0.725 4.8 0.48 9.557 1.195 14.283 2.144s9.397 2.123 14.005 3.52c4.608 1.408 9.141 3.040 13.589 4.885s8.8 3.915 13.045 6.187c4.256 2.272 8.384 4.757 12.384 7.435 4.011 2.677 7.872 5.547 11.595 8.608s7.296 6.304 10.699 9.707c3.413 3.413 6.645 6.987 9.696 10.709 3.061 3.723 5.931 7.595 8.608 11.605s5.152 8.139 7.435 12.395c2.272 4.245 4.331 8.597 6.176 13.056 1.845 4.448 3.477 8.992 4.875 13.6 1.408 4.619 2.581 9.291 3.531 14.016 0.939 4.725 1.653 9.493 2.133 14.293s0.725 9.611 0.725 14.432v609.28h66.709c1.451 0 2.912 0.075 4.363 0.213 1.44 0.149 2.88 0.363 4.309 0.651 1.429 0.277 2.848 0.629 4.235 1.056 1.397 0.427 2.763 0.917 4.107 1.472 1.355 0.555 2.667 1.184 3.947 1.867 1.291 0.683 2.539 1.44 3.744 2.251 1.216 0.8 2.379 1.675 3.509 2.592 1.12 0.928 2.197 1.909 3.232 2.933 1.035 1.035 2.005 2.112 2.933 3.243 0.917 1.12 1.792 2.293 2.592 3.509 0.811 1.205 1.557 2.453 2.251 3.744 0.683 1.28 1.301 2.603 1.867 3.947 0.555 1.344 1.045 2.72 1.472 4.117 0.416 1.387 0.768 2.805 1.056 4.235s0.501 2.869 0.64 4.32c0.139 1.451 0.213 2.901 0.213 4.363 0 1.451-0.075 2.912-0.213 4.363s-0.352 2.891-0.64 4.32c-0.288 1.429-0.64 2.837-1.056 4.235-0.427 1.397-0.917 2.763-1.472 4.117-0.565 1.344-1.184 2.656-1.867 3.947-0.693 1.28-1.44 2.528-2.251 3.744-0.8 1.205-1.675 2.379-2.592 3.509-0.928 1.12-1.899 2.208-2.933 3.232-1.035 1.035-2.112 2.005-3.232 2.933-1.131 0.928-2.293 1.792-3.509 2.603-1.205 0.811-2.453 1.557-3.744 2.251-1.28 0.683-2.592 1.301-3.947 1.867-1.344 0.555-2.709 1.045-4.107 1.472-1.387 0.416-2.805 0.768-4.235 1.056s-2.869 0.501-4.309 0.64c-1.451 0.149-2.912 0.213-4.363 0.213zM378.219 813.173c0 1.888 0.085 3.765 0.277 5.643 0.181 1.888 0.459 3.744 0.821 5.6 0.373 1.845 0.832 3.68 1.376 5.483 0.544 1.813 1.184 3.584 1.909 5.333 0.715 1.739 1.525 3.445 2.411 5.109 0.896 1.664 1.856 3.285 2.912 4.853 1.045 1.568 2.165 3.083 3.36 4.544 1.195 1.451 2.464 2.848 3.797 4.181 1.333 1.344 2.731 2.603 4.192 3.808 1.451 1.195 2.965 2.315 4.533 3.36 1.568 1.056 3.189 2.027 4.853 2.912s3.36 1.696 5.109 2.421c1.739 0.715 3.509 1.355 5.312 1.899 1.813 0.555 3.637 1.013 5.483 1.376 1.856 0.373 3.723 0.651 5.6 0.832 1.867 0.181 3.755 0.277 5.643 0.277h151.637c1.888 0 3.776-0.096 5.653-0.277s3.733-0.459 5.589-0.832c1.845-0.363 3.68-0.821 5.483-1.376 1.803-0.544 3.573-1.184 5.323-1.899 1.739-0.725 3.445-1.536 5.109-2.421s3.275-1.856 4.843-2.912c1.568-1.045 3.083-2.165 4.544-3.36 1.451-1.205 2.848-2.464 4.181-3.808 1.333-1.333 2.603-2.731 3.797-4.181 1.195-1.461 2.315-2.976 3.371-4.544 1.045-1.568 2.016-3.189 2.901-4.853s1.696-3.371 2.421-5.109c0.715-1.749 1.355-3.52 1.899-5.333 0.544-1.803 1.003-3.637 1.376-5.483 0.363-1.856 0.64-3.712 0.832-5.6 0.181-1.877 0.277-3.755 0.277-5.643v-31.381h-266.827zM778.453 83.499c-0.011-1.909-0.107-3.808-0.299-5.707s-0.48-3.787-0.853-5.653c-0.384-1.867-0.853-3.723-1.408-5.547s-1.205-3.616-1.931-5.376c-0.736-1.76-1.557-3.477-2.453-5.163-0.907-1.675-1.877-3.307-2.944-4.896-1.056-1.589-2.197-3.115-3.403-4.587-1.216-1.472-2.485-2.891-3.84-4.235-1.344-1.355-2.752-2.635-4.224-3.84-1.472-1.216-3.008-2.347-4.587-3.413-1.589-1.056-3.221-2.037-4.896-2.944-1.685-0.896-3.403-1.717-5.163-2.443-1.76-0.736-3.552-1.387-5.376-1.941-1.813-0.555-3.659-1.024-5.536-1.408-1.867-0.373-3.744-0.661-5.643-0.853s-3.797-0.288-5.707-0.299h-416.907c-1.909 0-3.819 0.096-5.717 0.277-1.909 0.192-3.797 0.469-5.664 0.843-1.877 0.373-3.733 0.832-5.557 1.387-1.835 0.555-3.627 1.195-5.397 1.931-1.76 0.725-3.488 1.536-5.173 2.443-1.685 0.896-3.328 1.877-4.917 2.933-1.589 1.067-3.125 2.197-4.597 3.413-1.483 1.205-2.901 2.485-4.256 3.84-1.355 1.344-2.635 2.763-3.851 4.235s-2.357 3.008-3.424 4.597c-1.056 1.579-2.048 3.221-2.955 4.907-0.907 1.675-1.717 3.403-2.453 5.173-0.736 1.76-1.387 3.552-1.952 5.387-0.555 1.824-1.024 3.68-1.408 5.547-0.373 1.877-0.661 3.765-0.853 5.664-0.203 1.909-0.299 3.819-0.309 5.728v609.28h533.653zM400.448 592.864c-1.451 0-2.912-0.064-4.352-0.213-1.451-0.139-2.891-0.352-4.32-0.64s-2.837-0.64-4.235-1.056c-1.397-0.427-2.763-0.917-4.107-1.472-1.344-0.565-2.667-1.184-3.947-1.867-1.291-0.693-2.528-1.44-3.744-2.251s-2.379-1.675-3.509-2.603c-1.12-0.928-2.197-1.899-3.232-2.933-1.024-1.024-2.005-2.112-2.933-3.232-0.917-1.131-1.781-2.293-2.592-3.509s-1.557-2.464-2.251-3.744c-0.683-1.291-1.301-2.603-1.867-3.947-0.555-1.355-1.045-2.72-1.461-4.117-0.427-1.397-0.779-2.805-1.067-4.235-0.277-1.429-0.491-2.869-0.64-4.32-0.139-1.451-0.213-2.912-0.213-4.363v-400.555c0-1.461 0.075-2.912 0.213-4.363 0.149-1.451 0.363-2.891 0.64-4.32 0.288-1.429 0.64-2.837 1.067-4.235 0.416-1.397 0.907-2.763 1.461-4.117 0.565-1.344 1.184-2.656 1.867-3.947 0.693-1.28 1.44-2.528 2.251-3.744s1.675-2.379 2.592-3.509c0.928-1.131 1.909-2.208 2.933-3.232 1.035-1.035 2.112-2.016 3.232-2.933 1.131-0.928 2.293-1.792 3.509-2.603s2.453-1.557 3.744-2.251c1.28-0.683 2.603-1.312 3.947-1.867s2.709-1.045 4.107-1.472c1.397-0.416 2.805-0.779 4.235-1.056 1.429-0.288 2.869-0.501 4.32-0.64 1.44-0.149 2.901-0.213 4.352-0.213 1.461 0 2.912 0.064 4.363 0.213 1.451 0.139 2.891 0.352 4.32 0.64 1.429 0.277 2.837 0.64 4.224 1.056 1.397 0.427 2.773 0.917 4.117 1.472s2.656 1.184 3.947 1.867c1.28 0.693 2.528 1.44 3.733 2.251 1.216 0.811 2.389 1.675 3.509 2.603 1.131 0.917 2.208 1.899 3.232 2.933 1.035 1.024 2.005 2.101 2.933 3.232s1.792 2.293 2.603 3.509c0.811 1.216 1.557 2.464 2.24 3.744 0.683 1.291 1.312 2.603 1.867 3.947 0.555 1.355 1.045 2.72 1.472 4.117 0.416 1.397 0.779 2.805 1.056 4.235 0.288 1.429 0.501 2.869 0.64 4.32 0.149 1.451 0.213 2.901 0.213 4.363v400.555c0 1.451-0.064 2.912-0.213 4.363-0.139 1.451-0.352 2.891-0.64 4.32-0.277 1.429-0.64 2.837-1.056 4.235-0.427 1.397-0.917 2.763-1.472 4.117-0.555 1.344-1.184 2.656-1.867 3.947-0.683 1.28-1.429 2.528-2.24 3.744s-1.675 2.379-2.603 3.509c-0.928 1.12-1.899 2.208-2.933 3.232-1.024 1.035-2.101 2.005-3.232 2.933-1.12 0.928-2.293 1.792-3.509 2.603-1.205 0.811-2.453 1.557-3.733 2.251-1.291 0.683-2.603 1.301-3.947 1.867-1.344 0.555-2.72 1.045-4.117 1.472-1.387 0.416-2.795 0.768-4.224 1.056s-2.869 0.501-4.32 0.64c-1.451 0.149-2.901 0.213-4.363 0.213zM622.805 592.864c-1.461 0-2.912-0.064-4.363-0.213-1.451-0.139-2.88-0.352-4.309-0.64s-2.848-0.64-4.235-1.056c-1.397-0.427-2.763-0.917-4.117-1.472-1.344-0.565-2.656-1.184-3.936-1.867-1.291-0.693-2.539-1.44-3.744-2.251-1.216-0.811-2.379-1.675-3.509-2.603-1.12-0.928-2.208-1.899-3.232-2.933-1.035-1.024-2.005-2.112-2.933-3.232-0.917-1.131-1.792-2.293-2.603-3.509-0.8-1.216-1.557-2.464-2.24-3.744-0.683-1.291-1.312-2.603-1.867-3.947-0.555-1.355-1.045-2.72-1.472-4.117-0.416-1.397-0.768-2.805-1.056-4.235s-0.501-2.869-0.64-4.32c-0.149-1.451-0.213-2.912-0.213-4.363v-400.555c0-1.461 0.064-2.912 0.213-4.363 0.139-1.451 0.352-2.891 0.64-4.32s0.64-2.837 1.056-4.235c0.427-1.397 0.917-2.763 1.472-4.117 0.555-1.344 1.184-2.656 1.867-3.947 0.683-1.28 1.44-2.528 2.24-3.744 0.811-1.216 1.685-2.379 2.603-3.509 0.928-1.131 1.899-2.208 2.933-3.232 1.024-1.035 2.112-2.016 3.232-2.933 1.131-0.928 2.293-1.792 3.509-2.603 1.205-0.811 2.453-1.557 3.744-2.251 1.28-0.683 2.592-1.312 3.936-1.867 1.355-0.555 2.72-1.045 4.117-1.472 1.387-0.416 2.805-0.779 4.235-1.056 1.429-0.288 2.859-0.501 4.309-0.64 1.451-0.149 2.901-0.213 4.363-0.213 1.451 0 2.912 0.064 4.363 0.213 1.44 0.139 2.88 0.352 4.309 0.64 1.429 0.277 2.848 0.64 4.235 1.056 1.397 0.427 2.763 0.917 4.107 1.472 1.355 0.555 2.667 1.184 3.947 1.867 1.291 0.693 2.539 1.44 3.744 2.251 1.216 0.811 2.379 1.675 3.509 2.603 1.12 0.917 2.197 1.899 3.232 2.933 1.035 1.024 2.005 2.101 2.933 3.232 0.917 1.131 1.792 2.293 2.592 3.509 0.811 1.216 1.557 2.464 2.251 3.744 0.683 1.291 1.301 2.603 1.867 3.947 0.555 1.355 1.045 2.72 1.472 4.117 0.416 1.397 0.768 2.805 1.056 4.235s0.501 2.869 0.64 4.32c0.139 1.451 0.213 2.901 0.213 4.363v400.555c0 1.451-0.075 2.912-0.213 4.363s-0.352 2.891-0.64 4.32c-0.288 1.429-0.64 2.837-1.056 4.235-0.427 1.397-0.917 2.763-1.472 4.117-0.565 1.344-1.184 2.656-1.867 3.947-0.693 1.28-1.44 2.528-2.251 3.744-0.8 1.216-1.675 2.379-2.592 3.509-0.928 1.12-1.899 2.208-2.933 3.232-1.035 1.035-2.112 2.005-3.232 2.933-1.131 0.928-2.293 1.792-3.509 2.603-1.205 0.811-2.453 1.557-3.744 2.251-1.28 0.683-2.592 1.301-3.947 1.867-1.344 0.555-2.709 1.045-4.107 1.472-1.387 0.416-2.805 0.768-4.235 1.056s-2.869 0.501-4.309 0.64c-1.451 0.149-2.912 0.213-4.363 0.213z" />
<glyph unicode="&#xe915;" glyph-name="Up" d="M837.781 165.376l-9.045 9.024c-0.651 0.725-1.077 1.557-1.696 2.283l-315.403 315.072-311.435-311.061c-0.107-0.181-12.619-14.421-19.925-20.085-0.181-0.149-0.363-0.256-0.576-0.363-18.805-14.485-42.315-23.232-67.925-23.232-28.533 0-54.464 10.763-74.208 28.363l-9.077 9.024c-17.579 19.723-28.395 45.664-28.395 74.165 0 29.301 11.435 55.925 29.941 75.829l1.312 1.301c-0.075 0.032-0.117 0.032-0.149 0.064 0 0 409.515 409.611 412.149 411.669 18.88 14.635 42.539 23.413 68.288 23.413 25.707 0 49.323-8.779 68.203-23.413 7.531-5.781 404.203-403.723 404.203-403.723l13.195-13.184c16.459-19.435 26.443-44.501 26.443-71.957 0-25.824-8.864-49.525-23.616-68.416-5.685-7.296-12.267-13.877-19.573-19.541-18.912-14.741-42.635-23.595-68.491-23.595-27.531 0-52.48 10.187-71.936 26.667-0.725 0.608-1.557 1.077-2.283 1.696z" />
<glyph unicode="&#xe916;" d="M-102.4 1062.4h1228.8v-1228.8h-1228.8v1228.8z" />
<glyph unicode="&#xe917;" d="M392.704 748.341c-8.448-0.085-16.885-0.085-25.333 0 0.043 5.077 0.085 10.165 0.128 15.243 8.523 0 17.045 0 25.568-0.043-0.16-5.077-0.277-10.165-0.363-15.2zM400.245 770.261c-5.899 0.501-11.851 0.779-17.749 1.355 3.285 3.979 7.211 7.296 11.189 10.539-1.888 1.76-3.691 3.563-5.536 5.365-1.877-1.717-5.653-5.205-7.541-6.965-3.232 2.827-6.304 5.739-9.259 8.811-17.419-0.16-34.88-0.16-52.256-0.085-5.28-7.541-16.352-13.152-15.115-23.605 0.032-42.005 0.075-84.064 0.075-126.112 2.379 1.888 4.917 3.573 7.499 5.045 0.043 39.349 0.085 78.731 0.043 118.080-1.632 8.107 5.984 12.992 10.208 18.731 15.168-0.085 30.325-0.128 45.451 0.032 3.808-3.232 7.701-6.475 11.392-9.877-6.027-0.491-12.085-0.736-18.112-1.227-1.44-17.376-1.269-34.955-0.416-52.373 5.291-4.8 11.851-7.712 17.792-11.605 7.829 2.624 15.157 6.475 22.293 10.613 0.619 17.749 0.619 35.541 0.043 53.28z" />
<glyph unicode="&#xe918;" d="M383.723 700.267c0.576-19.925 1.888-40 4.597-59.84-2.667 1.888-5.493 3.648-8.405 5.12-2.293 17.707-3.723 35.499-3.115 53.323 1.76 0.331 5.205 1.024 6.923 1.397z" />
<glyph unicode="&#xe919;" d="M439.669 510.379c-1.675-0.981-5.045-2.944-6.72-3.968-10.208 11.552-18.528 24.341-25.365 37.984 1.675 2.709 3.189 5.579 4.459 8.533 6.933-15.573 16.64-29.589 27.627-42.549z" />
<glyph unicode="&#xe91a;" d="M478.645 768.704c-6.272 0-11.392-5.077-11.392-11.349v-134.795c0-6.272 5.12-11.36 11.392-11.36h166.592c6.272 0 11.36 5.088 11.36 11.36v134.795c0 6.272-5.088 11.349-11.36 11.349zM645.237 597.557h-166.592c-13.813 0-25.003 11.232-25.003 25.003v134.795c0 13.771 11.189 25.003 25.003 25.003h166.592c13.771 0 25.003-11.232 25.003-25.003v-134.795c0-13.771-11.232-25.003-25.003-25.003z" />
<glyph unicode="&#xe91b;" d="M620.939 654.571l-11.477 10.816c-0.448 0.405-1.109 0.491-1.632 0.16l-17.547-11.019c-0.491-0.288-1.109-0.288-1.557 0.075l-9.099 7.221c-0.533 0.448-1.269 0.405-1.76-0.085l-7.339-7.136c-0.651-0.608-1.717-0.448-2.133 0.416l-11.509 24.256c-0.459 0.907-1.643 1.035-2.261 0.256l-19.296-24.757c-0.533-0.736-1.643-0.704-2.133 0.043l-8.448 12.213c-0.448 0.651-1.429 0.736-2.048 0.16l-13.152-12.832c-0.245-0.245-0.576-0.363-0.907-0.363h-48.352c-0.736 0-1.355 0.576-1.355 1.312v0.363c0 0.736 0.619 1.355 1.355 1.355h47.083c0.373 0 0.704 0.128 0.949 0.373l14.837 14.464c0.608 0.576 1.557 0.491 2.048-0.203l8.107-11.723c0.533-0.736 1.6-0.779 2.176-0.085l19.755 25.408c0.619 0.821 1.845 0.661 2.251-0.245l11.808-24.875c0.405-0.864 1.515-1.024 2.165-0.405l6.197 6.059c0.491 0.459 1.227 0.491 1.76 0.085l9.504-7.541c0.459-0.373 1.067-0.405 1.557-0.117l17.707 11.147c0.533 0.32 1.195 0.245 1.643-0.171l9.344-8.811c0.736-0.693 1.963-0.331 2.208 0.693l5.451 23.936c0.288 1.28 2.091 1.44 2.581 0.213l10.453-26.976c0.203-0.533 0.693-0.853 1.269-0.853h20.949c0.736 0 1.312-0.619 1.312-1.355v-0.331c0-0.736-0.576-1.355-1.312-1.355h-23.040c-0.533 0-1.024 0.331-1.227 0.864l-7.659 19.669c-0.501 1.237-2.261 1.109-2.549-0.16l-4.469-19.509c-0.203-0.981-1.429-1.355-2.208-0.651z" />
<glyph unicode="&#xe91c;" d="M620.939 686.539l-11.477 10.816c-0.448 0.405-1.109 0.491-1.632 0.16l-17.547-11.019c-0.491-0.288-1.109-0.245-1.557 0.075l-9.099 7.264c-0.533 0.405-1.269 0.363-1.76-0.085l-7.339-7.136c-0.651-0.651-1.717-0.448-2.133 0.373l-11.509 24.256c-0.459 0.949-1.643 1.067-2.261 0.288l-19.296-24.789c-0.533-0.704-1.643-0.704-2.133 0.043l-8.448 12.213c-0.448 0.651-1.429 0.779-2.048 0.203l-13.152-12.875c-0.245-0.245-0.576-0.363-0.907-0.363h-48.352c-0.736 0-1.355 0.608-1.355 1.355v0.32c0 0.736 0.619 1.355 1.355 1.355h47.083c0.373 0 0.704 0.128 0.949 0.373l14.837 14.464c0.608 0.619 1.557 0.491 2.048-0.16l8.107-11.765c0.533-0.736 1.6-0.779 2.176-0.043l19.755 25.408c0.619 0.779 1.845 0.661 2.251-0.245l11.808-24.917c0.405-0.821 1.515-1.024 2.165-0.363l6.197 6.016c0.491 0.459 1.227 0.491 1.76 0.085l9.504-7.541c0.459-0.373 1.067-0.405 1.557-0.085l17.707 11.115c0.533 0.32 1.195 0.245 1.643-0.171l9.344-8.768c0.736-0.736 1.963-0.373 2.208 0.651l5.451 23.936c0.288 1.312 2.091 1.44 2.581 0.213l10.453-26.976c0.203-0.533 0.693-0.853 1.269-0.853h20.949c0.736 0 1.312-0.619 1.312-1.312v-0.373c0-0.736-0.576-1.355-1.312-1.355h-23.040c-0.533 0-1.024 0.373-1.227 0.864l-7.659 19.669c-0.501 1.237-2.261 1.109-2.549-0.16l-4.469-19.467c-0.203-1.024-1.429-1.397-2.208-0.693z" />
<glyph unicode="&#xe91d;" d="M620.939 718.507l-11.477 10.816c-0.448 0.448-1.109 0.491-1.632 0.16l-17.547-11.019c-0.491-0.288-1.109-0.245-1.557 0.117l-9.099 7.221c-0.533 0.405-1.269 0.363-1.76-0.085l-7.339-7.136c-0.651-0.651-1.717-0.448-2.133 0.373l-11.509 24.299c-0.459 0.907-1.643 1.024-2.261 0.245l-19.296-24.789c-0.533-0.704-1.643-0.661-2.133 0.075l-8.448 12.181c-0.448 0.693-1.429 0.779-2.048 0.203l-13.152-12.875c-0.245-0.203-0.576-0.363-0.907-0.363h-48.352c-0.736 0-1.355 0.608-1.355 1.355v0.32c0 0.736 0.619 1.355 1.355 1.355h47.083c0.373 0 0.704 0.128 0.949 0.416l14.837 14.464c0.608 0.576 1.557 0.491 2.048-0.203l8.107-11.723c0.533-0.779 1.6-0.779 2.176-0.085l19.755 25.408c0.619 0.779 1.845 0.661 2.251-0.245l11.808-24.917c0.405-0.821 1.515-1.024 2.165-0.363l6.197 6.016c0.491 0.459 1.227 0.491 1.76 0.085l9.504-7.541c0.459-0.373 1.067-0.373 1.557-0.085l17.707 11.115c0.533 0.32 1.195 0.245 1.643-0.171l9.344-8.768c0.736-0.736 1.963-0.331 2.208 0.651l5.451 23.979c0.288 1.269 2.091 1.397 2.581 0.171l10.453-26.976c0.203-0.491 0.693-0.853 1.269-0.853h20.949c0.736 0 1.312-0.576 1.312-1.312v-0.373c0-0.736-0.576-1.355-1.312-1.355h-23.040c-0.533 0-1.024 0.373-1.227 0.864l-7.659 19.712c-0.501 1.227-2.261 1.067-2.549-0.203l-4.469-19.467c-0.203-1.024-1.429-1.397-2.208-0.693z" />
<glyph unicode="&#xe91e;" d="M490.453 636.491c0-0.491-0.256-0.939-0.619-1.184l-0.331-0.213h-0.043c-0.16-0.075-0.32-0.117-0.533-0.117h-24.992c-0.821 0-1.525 0.693-1.525 1.515s0.704 1.515 1.525 1.515h24.992c0.821 0 1.525-0.693 1.525-1.515z" />
<glyph unicode="&#xe91f;" d="M660.896 635.424c0-0.821-0.693-1.515-1.515-1.515h-38.645c-0.576 0-1.109 0.331-1.355 0.864l-1.685 3.563c-0.405 0.864-1.515 1.152-2.293 0.533l-6.347-4.875c-0.288-0.203-0.576-0.331-0.949-0.331l-32.043 0.245c-0.245 0-0.491 0.085-0.736 0.203l-8.736 4.875c-0.491 0.288-1.099 0.288-1.557-0.032l-7.584-5.045c-0.651-0.448-1.557-0.288-2.048 0.373l-1.845 2.624c-0.523 0.693-1.557 0.811-2.208 0.245l-3.563-3.115c-0.704-0.619-1.76-0.459-2.261 0.277l-0.779 1.237c-0.363 0.533-1.056 0.779-1.675 0.608l-7.989-2.165c-0.821-0.245-1.643 0.245-1.888 1.024l-2.048 7.744c-0.331 1.269-2.005 1.557-2.709 0.448l-5.899-8.64c-0.619-0.949-2.091-0.864-2.581 0.203l-3.029 6.027c-0.501 1.024-1.931 1.099-2.581 0.16l-4.427-6.389c-0.619-0.907-1.973-0.864-2.549 0.117l-3.808 6.517c-0.405 0.693-1.312 0.939-2.048 0.576l-11.68-6.475-0.331-0.213h-0.043c-0.16-0.075-0.32-0.117-0.533-0.117h-1.557c-0.16 0.117-0.288 0.288-0.405 0.448-0.128 0.245-0.203 0.491-0.203 0.736 0 0.533 0.288 1.067 0.821 1.312l0.896 0.533 14.176 7.829c0.704 0.416 1.6 0.171 2.059-0.576l2.869-4.96c0.565-0.939 1.92-1.024 2.539-0.075l4.629 6.677c0.651 0.939 2.091 0.864 2.581-0.203l2.987-5.984c0.533-1.024 1.973-1.109 2.624-0.16l6.688 9.867c0.736 1.067 2.368 0.789 2.741-0.448l2.955-11.232c0.245-0.779 1.067-1.269 1.877-1.056l7.179 2.005c0.608 0.16 1.269-0.085 1.643-0.661l0.117-0.117c0.491-0.779 1.557-0.907 2.251-0.331l3.445 3.029c0.693 0.619 1.717 0.501 2.251-0.245l2.059-2.901c0.491-0.704 1.387-0.864 2.080-0.416l6.645 4.469c0.491 0.288 1.109 0.331 1.6 0.043l9.675-5.451c0.203-0.128 0.448-0.171 0.693-0.171l30.24-0.245c0.331 0 0.704 0.128 0.949 0.331l8.523 6.56c0.736 0.576 1.888 0.331 2.293-0.576l2.464-5.205c0.245-0.533 0.779-0.864 1.344-0.864h36.725c0.821 0 1.515-0.693 1.515-1.515z" />
<glyph unicode="&#xe920;" d="M333.643 646.496c30.411 6.72 63.605-11.435 74.304-40.661 9.515-24.096 3.040-53.483-16.021-71.189-13.525-12.747-32.544-19.627-51.147-17.749-27.584 2.219-52.128 23.691-57.867 50.784-9.344 34.389 15.979 72.373 50.731 78.816z" />
<glyph unicode="&#xe921;" d="M183.2 533.995c1.312 16.427 15.157 30.528 31.307 32.907 14.677 3.2 28.725-5.088 38.325-15.573 76.384-74.763 153.109-149.269 229.461-224.149 43.2 0.085 86.389-0.043 129.589 0.043 10.368-0.043 21.109 0.779 30.944-3.029 56.597-19.349 113.44-38.037 170.080-57.344 17.376-5.365 29.216-23.893 25.813-41.963-2.208-22.752-28.395-38.123-49.504-30.048-53.931 17.92-107.787 36.192-161.675 54.272-8.448 3.029-17.589 1.803-26.357 1.92-0.043-31.765 0-63.563 0-95.371 20.864 0.043 41.76 0.043 62.624 0 0.779-16.064 1.227-32.213-0.16-48.277h-232.587c-0.203 15.904-0.16 31.808-0.043 47.701 17.664 1.067 35.413 0.416 53.12 0.533 0.085 31.851 0.085 63.648 0 95.456-12.053 0.043-25.003-1.184-35.819 5.163-9.301 5.536-16.192 14.059-23.936 21.397-76.683 74.709-153.237 149.547-229.877 224.309-8.565 8.192-12.789 20.288-11.307 32.053z" />
<glyph unicode="&#xe922;" d="M382.827 513.579c13.568 14.176 38.688 14.507 52.661 0.736 30.539-29.461 61.227-58.816 91.68-88.363 41.109 0.245 82.251 0 123.403 0.128 8.149 0.203 16.352-1.109 24.011-4.107 44.021-16.8 88.075-33.643 132.171-50.368 10.987-3.648 21.28-10.944 25.909-21.888 7.296-16.224 1.803-37.419-13.483-46.965-10.336-7.253-24.267-8.277-35.819-3.52-43.115 16.437-86.315 32.789-129.387 49.344-2.912 1.067-5.899 1.557-9.013 1.397-44.181-0.043-88.32-0.128-132.501 0-11.36-0.661-21.888 5.12-29.589 13.067-33.483 32.672-67.627 64.672-100.864 97.589-13.973 14.059-13.568 39.339 0.821 52.949z" />
<glyph unicode="&#xe923;" d="M-102.4 1062.4h1228.8v-1228.8h-1228.8v1228.8z" />
<glyph unicode="&#xe924;" d="M602.976 663.253c0-1.856-0.085-3.701-0.267-5.547-0.181-1.835-0.459-3.669-0.821-5.483s-0.811-3.616-1.344-5.387c-0.544-1.771-1.173-3.509-1.877-5.216-0.715-1.717-1.504-3.381-2.379-5.024-0.875-1.632-1.824-3.211-2.859-4.757-1.035-1.536-2.133-3.019-3.317-4.448-1.173-1.44-2.421-2.805-3.733-4.117s-2.688-2.549-4.117-3.723c-1.44-1.173-2.923-2.283-4.469-3.307s-3.136-1.984-4.768-2.848c-1.643-0.875-3.317-1.664-5.035-2.379-1.717-0.704-3.456-1.333-5.237-1.867-1.771-0.533-3.573-0.981-5.397-1.344-1.813-0.363-3.648-0.64-5.493-0.821-1.856-0.181-3.701-0.267-5.557-0.267s-3.712 0.085-5.557 0.267c-1.845 0.181-3.68 0.459-5.504 0.821s-3.616 0.811-5.397 1.344c-1.771 0.533-3.52 1.163-5.237 1.867-1.707 0.715-3.392 1.504-5.024 2.379-1.643 0.864-3.232 1.824-4.768 2.848-1.547 1.024-3.040 2.133-4.469 3.307-1.44 1.173-2.805 2.411-4.128 3.723-1.312 1.312-2.549 2.677-3.733 4.117-1.173 1.429-2.283 2.912-3.307 4.448-1.035 1.547-1.984 3.125-2.859 4.757-0.875 1.643-1.675 3.307-2.379 5.024-0.715 1.707-1.344 3.445-1.877 5.216-0.544 1.771-0.992 3.573-1.355 5.387s-0.629 3.648-0.811 5.483c-0.181 1.845-0.277 3.691-0.277 5.547 0 1.845 0.096 3.701 0.277 5.536 0.181 1.845 0.448 3.68 0.811 5.493s0.811 3.605 1.355 5.376c0.533 1.771 1.163 3.52 1.877 5.227 0.704 1.707 1.504 3.381 2.379 5.013s1.824 3.221 2.859 4.757c1.024 1.547 2.133 3.029 3.307 4.459 1.184 1.429 2.421 2.805 3.733 4.107 1.323 1.312 2.688 2.56 4.128 3.733 1.429 1.173 2.923 2.272 4.469 3.307 1.536 1.024 3.125 1.973 4.768 2.848 1.632 0.875 3.317 1.664 5.024 2.368 1.717 0.715 3.467 1.333 5.237 1.877 1.781 0.533 3.573 0.981 5.397 1.344s3.659 0.629 5.504 0.811c1.845 0.181 3.701 0.277 5.557 0.277s3.701-0.096 5.557-0.277c1.845-0.181 3.68-0.448 5.493-0.811 1.824-0.363 3.627-0.811 5.397-1.344 1.781-0.544 3.52-1.163 5.237-1.877 1.717-0.704 3.392-1.493 5.035-2.368 1.632-0.875 3.221-1.824 4.768-2.848 1.547-1.035 3.029-2.133 4.469-3.307 1.429-1.173 2.805-2.421 4.117-3.733 1.312-1.301 2.56-2.677 3.733-4.107 1.184-1.429 2.283-2.912 3.317-4.459 1.035-1.536 1.984-3.125 2.859-4.757s1.664-3.307 2.379-5.013c0.704-1.707 1.333-3.456 1.877-5.227 0.533-1.771 0.981-3.563 1.344-5.376s0.64-3.648 0.821-5.493c0.181-1.835 0.267-3.691 0.267-5.536z" />
<glyph unicode="&#xe925;" d="M330.923 324.053c0-1.856-0.085-3.701-0.277-5.547-0.181-1.835-0.448-3.669-0.811-5.483s-0.811-3.616-1.355-5.387c-0.533-1.771-1.163-3.509-1.867-5.216-0.715-1.717-1.504-3.381-2.379-5.024-0.875-1.632-1.835-3.211-2.859-4.757-1.035-1.536-2.144-3.019-3.317-4.448-1.173-1.44-2.421-2.805-3.733-4.117s-2.688-2.549-4.128-3.723c-1.429-1.173-2.923-2.283-4.459-3.307-1.547-1.024-3.136-1.984-4.779-2.848-1.632-0.875-3.307-1.664-5.024-2.379-1.717-0.704-3.467-1.333-5.237-1.867-1.781-0.533-3.573-0.981-5.397-1.344s-3.659-0.64-5.504-0.821c-1.845-0.181-3.701-0.267-5.557-0.267s-3.701 0.085-5.547 0.267c-1.856 0.181-3.68 0.459-5.504 0.821s-3.616 0.811-5.397 1.344c-1.781 0.533-3.52 1.163-5.237 1.867-1.717 0.715-3.392 1.504-5.024 2.379-1.643 0.864-3.232 1.824-4.779 2.848-1.536 1.024-3.029 2.133-4.459 3.307-1.44 1.173-2.816 2.411-4.128 3.723s-2.56 2.677-3.733 4.117c-1.173 1.429-2.283 2.912-3.317 4.448-1.024 1.547-1.984 3.125-2.859 4.757-0.875 1.643-1.664 3.307-2.379 5.024-0.704 1.707-1.333 3.445-1.867 5.216-0.544 1.771-0.992 3.573-1.355 5.387s-0.629 3.648-0.821 5.483c-0.181 1.845-0.267 3.691-0.267 5.547 0 1.845 0.085 3.701 0.267 5.536 0.192 1.845 0.459 3.68 0.821 5.493s0.811 3.605 1.355 5.376c0.533 1.771 1.163 3.52 1.867 5.227 0.715 1.707 1.504 3.381 2.379 5.013s1.835 3.221 2.859 4.757c1.035 1.547 2.144 3.029 3.317 4.459s2.421 2.805 3.733 4.107c1.312 1.312 2.688 2.56 4.128 3.733 1.429 1.173 2.923 2.272 4.459 3.307 1.547 1.024 3.136 1.973 4.779 2.848 1.632 0.875 3.307 1.664 5.024 2.368 1.717 0.715 3.456 1.333 5.237 1.877 1.781 0.533 3.573 0.981 5.397 1.344s3.648 0.629 5.504 0.811c1.845 0.181 3.691 0.277 5.547 0.277s3.712-0.096 5.557-0.277c1.845-0.181 3.68-0.448 5.504-0.811s3.616-0.811 5.397-1.344c1.771-0.544 3.52-1.163 5.237-1.877 1.717-0.704 3.392-1.493 5.024-2.368 1.643-0.875 3.232-1.824 4.779-2.848 1.536-1.035 3.029-2.133 4.459-3.307 1.44-1.173 2.816-2.421 4.128-3.733 1.312-1.301 2.56-2.677 3.733-4.107s2.283-2.912 3.317-4.459c1.024-1.536 1.984-3.125 2.859-4.757s1.664-3.307 2.379-5.013c0.704-1.707 1.333-3.456 1.867-5.227 0.544-1.771 0.992-3.563 1.355-5.376s0.629-3.648 0.811-5.493c0.192-1.835 0.277-3.691 0.277-5.536z" />
<glyph unicode="&#xe926;" d="M217.568 222.293h589.451v-45.227h-589.451z" />
<glyph unicode="&#xe927;" d="M353.6 177.067h-136.032v45.227c0 11.307 9.067 22.613 22.667 22.613h58.944c6.805 0 11.339-2.261 15.872-6.784l15.872-15.829z" />
<glyph unicode="&#xe928;" d="M779.819 303.701l-199.509 11.307v20.352h-204.043c-24.939 0-45.344-20.352-45.344-45.227s20.405-45.227 45.344-45.227h22.667v58.795l136.032-2.261c24.939 0 45.344-9.045 45.344-33.92 0-9.045-2.272-15.829-6.805-22.613h204.043c15.872 0 29.472 13.568 29.472 29.397s-11.328 27.136-27.2 29.397z" />
<glyph unicode="&#xe929;" d="M534.965 244.907h-158.699v61.056l158.699-15.829c13.6 0 22.667-9.045 22.667-22.613s-9.067-22.613-22.667-22.613z" />
<glyph unicode="&#xe92a;" d="M725.408 425.813h-95.221c9.067-11.307 13.6-31.659 2.261-45.227-6.795-9.045-18.133-15.829-29.472-15.829-13.6 0-45.344 15.829-45.344 15.829l-45.333-49.749 34.005-11.307 40.811-9.045 40.8 54.272 99.755 6.784c13.611 0 27.211 13.568 27.211 27.136s-13.6 27.136-29.472 27.136z" />
<glyph unicode="&#xe92b;" d="M609.781 423.552l-68.011 40.704-22.677 83.669c-2.261 11.307-15.872 18.091-27.2 15.829-11.339-2.261-18.144-15.829-15.872-27.136l22.667-83.669c2.272-11.307 11.339-20.352 20.405-27.136l68.021-40.704c4.533-2.261 6.795-2.261 11.328-2.261 6.805 0 15.872 4.523 20.405 11.307 6.805 9.045 2.272 22.613-9.067 29.397z" />
<glyph unicode="&#xe92c;" d="M541.771 389.632l-29.472 20.352c-22.677 18.091 0 63.317-2.272 76.885 0 0 2.272 81.408 6.805 63.317l40.8-83.669 38.549-18.091h29.472v61.056l54.411-61.056h58.944l-99.755 119.851c-9.067 9.045-20.405 15.829-34.005 15.829h-92.949c-24.939 0-45.344-20.352-45.344-45.227v-180.907h45.344z" />
<glyph unicode="&#xe92d;" d="M-102.4 1062.4h1228.8v-1228.8h-1228.8v1228.8z" />
<glyph unicode="&#xe92e;" d="M856.427 601.643l-329.675 219.819c-2.24 1.483-4.651 2.603-7.221 3.381-2.581 0.768-5.205 1.152-7.893 1.152s-5.312-0.384-7.883-1.152c-2.571-0.779-4.981-1.899-7.221-3.381l-329.675-219.819c-1.899-1.237-3.605-2.699-5.131-4.363-1.536-1.664-2.837-3.499-3.915-5.483-1.077-1.995-1.899-4.085-2.464-6.272-0.555-2.197-0.843-4.416-0.853-6.688v-384.683c0-1.803 0.171-3.584 0.523-5.355s0.875-3.488 1.568-5.152c0.683-1.675 1.536-3.253 2.539-4.757 1.003-1.493 2.133-2.88 3.413-4.16s2.667-2.411 4.16-3.413c1.504-1.003 3.083-1.856 4.757-2.539 1.664-0.693 3.381-1.216 5.152-1.568s3.552-0.533 5.355-0.533h659.349c1.803 0 3.595 0.181 5.365 0.533s3.488 0.875 5.152 1.568c1.664 0.683 3.253 1.536 4.747 2.539 1.504 1.003 2.891 2.133 4.16 3.413 1.28 1.28 2.421 2.667 3.424 4.16 1.003 1.504 1.845 3.083 2.539 4.757 0.693 1.664 1.205 3.381 1.557 5.152s0.533 3.552 0.533 5.355v384.683c-0.011 2.272-0.299 4.491-0.864 6.688-0.555 2.187-1.376 4.277-2.453 6.272-1.088 1.984-2.389 3.819-3.915 5.483-1.536 1.664-3.243 3.125-5.131 4.363zM319.328 386.496h384.619v-54.955h-384.619zM703.947 441.451h-384.619v54.955h384.619zM319.328 221.632v54.955h384.619v-54.955zM813.845 221.632h-54.955v302.251c0 1.813-0.171 3.595-0.523 5.365s-0.875 3.488-1.568 5.152c-0.683 1.664-1.536 3.253-2.539 4.757-1.003 1.493-2.133 2.88-3.413 4.16-1.269 1.28-2.667 2.411-4.16 3.413-1.504 1.003-3.083 1.856-4.747 2.539-1.675 0.693-3.392 1.216-5.163 1.568-1.76 0.352-3.552 0.523-5.355 0.523h-439.563c-1.813 0-3.595-0.171-5.365-0.523s-3.488-0.875-5.152-1.568c-1.664-0.683-3.253-1.536-4.747-2.539-1.504-1.003-2.891-2.133-4.171-3.413-1.269-1.28-2.411-2.667-3.413-4.16-1.003-1.504-1.845-3.093-2.539-4.757s-1.216-3.381-1.568-5.152c-0.352-1.771-0.523-3.552-0.523-5.365v-302.251h-54.944v342.368l302.197 201.685 302.208-201.685z" />
<glyph unicode="&#xe92f;" d="M456.693 633.792c0-1.803 0.181-3.584 0.533-5.355s0.864-3.488 1.557-5.152c0.693-1.675 1.536-3.253 2.539-4.757 1.003-1.493 2.144-2.891 3.413-4.16 1.28-1.28 2.667-2.411 4.171-3.413 1.493-1.003 3.083-1.856 4.747-2.549 1.664-0.683 3.381-1.205 5.152-1.557s3.563-0.533 5.365-0.533h54.944c1.803 0 3.584 0.181 5.355 0.533s3.488 0.875 5.152 1.557c1.675 0.693 3.253 1.547 4.757 2.549 1.493 1.003 2.88 2.133 4.16 3.413 1.28 1.269 2.411 2.667 3.413 4.16 1.003 1.504 1.856 3.083 2.539 4.757 0.693 1.664 1.216 3.381 1.568 5.152s0.523 3.552 0.523 5.355c0 1.813-0.171 3.595-0.523 5.365s-0.875 3.488-1.568 5.152c-0.683 1.664-1.536 3.253-2.539 4.757-1.003 1.493-2.133 2.88-3.413 4.16s-2.667 2.411-4.16 3.413c-1.504 1.003-3.083 1.856-4.757 2.539-1.664 0.693-3.381 1.216-5.152 1.568s-3.552 0.523-5.355 0.523h-54.944c-1.803 0-3.595-0.171-5.365-0.523s-3.488-0.875-5.152-1.568c-1.664-0.683-3.253-1.536-4.747-2.539-1.504-1.003-2.891-2.133-4.171-3.413-1.269-1.28-2.411-2.667-3.413-4.16-1.003-1.504-1.845-3.093-2.539-4.757s-1.205-3.381-1.557-5.152c-0.352-1.771-0.533-3.552-0.533-5.365z" />
<glyph unicode="&#xe930;" glyph-name="Edit" d="M872.288 913.536c-8.651 8.651-20.715 13.6-32.768 13.6-12.373 0-24.117-4.949-32.779-13.6l-354.624-354.325c-8.043-8.043-12.683-18.859-13.301-30.304l-6.187-111.605c-0.619-12.992 4.331-25.973 13.611-35.253 8.661-8.651 20.405-13.6 32.768-13.6h2.475l111.616 6.176c11.136 0.629 21.952 5.568 29.995 13.611l354.624 354.016c8.661 8.96 13.611 20.715 13.611 32.768 0 12.373-4.949 24.117-13.611 33.088zM189.451-31.328h514.315c86.347 0 156.587 70.251 156.587 156.587v317.045c0 25.621-20.779 46.379-46.379 46.379-25.611 0-46.379-20.757-46.379-46.379v-317.045c0-35.189-28.629-63.829-63.829-63.829h-514.315c-35.211 0-63.829 28.64-63.829 63.829v514.315c0 35.189 28.619 63.829 63.829 63.829h317.056c25.611 0 46.379 20.757 46.379 46.379s-20.768 46.379-46.379 46.379h-317.056c-86.357 0-156.587-70.251-156.587-156.587v-514.315c0-86.336 70.229-156.587 156.587-156.587z" />
<glyph unicode="&#xe931;" d="M1024 448c0-8.384-0.203-16.757-0.619-25.12-0.405-8.373-1.024-16.725-1.845-25.067s-1.845-16.651-3.083-24.939c-1.227-8.288-2.656-16.544-4.288-24.757-1.643-8.224-3.477-16.395-5.515-24.523-2.027-8.128-4.267-16.203-6.699-24.224-2.432-8.011-5.056-15.968-7.883-23.861-2.827-7.883-5.835-15.701-9.045-23.445-3.2-7.744-6.603-15.392-10.187-22.976-3.573-7.573-7.339-15.051-11.296-22.443-3.947-7.392-8.075-14.677-12.384-21.867s-8.789-14.261-13.44-21.227c-4.661-6.976-9.483-13.824-14.475-20.555s-10.144-13.333-15.456-19.808c-5.323-6.475-10.795-12.821-16.416-19.029-5.632-6.208-11.403-12.277-17.333-18.197-5.92-5.931-11.989-11.701-18.197-17.333-6.208-5.621-12.555-11.093-19.029-16.416-6.475-5.312-13.077-10.464-19.808-15.456s-13.579-9.813-20.555-14.475c-6.965-4.651-14.037-9.131-21.227-13.44s-14.475-8.437-21.867-12.384c-7.392-3.957-14.869-7.723-22.443-11.296-7.584-3.584-15.232-6.987-22.976-10.187-7.744-3.211-15.563-6.219-23.445-9.045-7.893-2.827-15.851-5.451-23.861-7.883-8.021-2.432-16.096-4.672-24.224-6.699-8.128-2.037-16.299-3.872-24.523-5.515-8.213-1.632-16.469-3.061-24.757-4.288-8.288-1.237-16.597-2.261-24.939-3.083s-16.693-1.44-25.067-1.845c-8.363-0.416-16.736-0.619-25.12-0.619s-16.757 0.203-25.12 0.619c-8.373 0.405-16.725 1.024-25.067 1.845s-16.651 1.845-24.939 3.083c-8.288 1.227-16.544 2.656-24.757 4.288-8.224 1.643-16.395 3.477-24.523 5.515-8.128 2.027-16.203 4.267-24.224 6.699-8.011 2.432-15.968 5.056-23.861 7.883-7.883 2.827-15.701 5.835-23.445 9.045-7.744 3.2-15.403 6.603-22.976 10.187-7.573 3.573-15.051 7.339-22.443 11.296-7.392 3.947-14.677 8.075-21.867 12.384s-14.261 8.789-21.227 13.44c-6.976 4.661-13.824 9.483-20.555 14.475s-13.333 10.144-19.808 15.456c-6.475 5.323-12.821 10.795-19.029 16.416-6.208 5.632-12.277 11.403-18.197 17.333-5.931 5.92-11.701 11.989-17.333 18.197-5.621 6.208-11.093 12.555-16.416 19.029-5.312 6.475-10.464 13.077-15.456 19.808s-9.813 13.579-14.475 20.555c-4.651 6.965-9.131 14.037-13.44 21.227s-8.437 14.475-12.384 21.867c-3.957 7.392-7.723 14.869-11.296 22.443-3.584 7.584-6.987 15.232-10.187 22.976-3.211 7.744-6.219 15.563-9.045 23.445-2.827 7.893-5.451 15.851-7.883 23.861-2.432 8.021-4.672 16.096-6.699 24.224-2.037 8.128-3.872 16.299-5.515 24.523-1.632 8.213-3.061 16.469-4.288 24.757-1.237 8.288-2.261 16.597-3.083 24.939s-1.44 16.693-1.845 25.067c-0.416 8.363-0.619 16.736-0.619 25.12s0.203 16.757 0.619 25.12c0.405 8.373 1.024 16.725 1.845 25.067s1.845 16.651 3.083 24.939c1.227 8.288 2.656 16.544 4.288 24.757 1.643 8.224 3.477 16.395 5.515 24.523 2.027 8.128 4.267 16.203 6.699 24.224 2.432 8.011 5.056 15.968 7.883 23.861 2.827 7.883 5.835 15.701 9.045 23.445 3.2 7.744 6.603 15.403 10.187 22.976 3.573 7.573 7.339 15.051 11.296 22.443 3.947 7.392 8.075 14.677 12.384 21.867s8.789 14.261 13.44 21.227c4.661 6.976 9.483 13.824 14.475 20.555s10.144 13.333 15.456 19.808c5.323 6.475 10.795 12.821 16.416 19.029 5.632 6.208 11.403 12.277 17.333 18.197 5.92 5.931 11.989 11.701 18.197 17.333 6.208 5.621 12.555 11.093 19.029 16.416 6.475 5.312 13.077 10.464 19.808 15.456s13.579 9.813 20.555 14.475c6.965 4.651 14.037 9.131 21.227 13.44s14.475 8.437 21.867 12.384c7.392 3.957 14.869 7.723 22.443 11.296 7.573 3.584 15.232 6.987 22.976 10.187 7.744 3.211 15.563 6.219 23.445 9.045 7.893 2.827 15.851 5.451 23.861 7.883 8.021 2.432 16.096 4.672 24.224 6.709 8.128 2.027 16.299 3.861 24.523 5.504 8.213 1.632 16.469 3.061 24.757 4.288 8.288 1.237 16.597 2.261 24.939 3.083s16.693 1.44 25.067 1.845c8.363 0.416 16.736 0.619 25.12 0.619s16.757-0.203 25.12-0.619c8.373-0.405 16.725-1.024 25.067-1.845s16.651-1.845 24.939-3.083c8.288-1.227 16.544-2.656 24.757-4.288 8.224-1.643 16.395-3.477 24.523-5.504 8.128-2.037 16.203-4.277 24.224-6.709 8.011-2.432 15.968-5.056 23.861-7.883 7.883-2.827 15.701-5.835 23.445-9.045 7.744-3.2 15.392-6.603 22.976-10.187 7.573-3.573 15.051-7.339 22.443-11.296 7.392-3.947 14.677-8.075 21.867-12.384s14.261-8.789 21.227-13.44c6.976-4.661 13.824-9.483 20.555-14.475s13.333-10.144 19.808-15.456c6.475-5.323 12.821-10.795 19.029-16.416 6.208-5.632 12.277-11.403 18.197-17.333 5.931-5.92 11.701-11.989 17.333-18.197 5.621-6.208 11.093-12.555 16.416-19.029 5.312-6.475 10.464-13.077 15.456-19.808s9.813-13.579 14.475-20.555c4.651-6.965 9.131-14.037 13.44-21.227s8.437-14.475 12.384-21.867c3.957-7.392 7.723-14.869 11.296-22.443 3.584-7.573 6.987-15.232 10.187-22.976 3.211-7.744 6.219-15.563 9.045-23.445 2.827-7.893 5.451-15.851 7.883-23.861 2.432-8.021 4.672-16.096 6.699-24.224 2.037-8.128 3.872-16.299 5.515-24.523 1.632-8.213 3.061-16.469 4.288-24.757 1.237-8.288 2.261-16.597 3.083-24.939s1.44-16.693 1.845-25.067c0.416-8.363 0.619-16.736 0.619-25.12z" />
<glyph unicode="&#xe932;" d="M500.395 786.059l-321.131-289.045c-1.301-1.163-2.4-2.485-3.296-3.979s-1.547-3.093-1.963-4.789c-0.405-1.696-0.565-3.403-0.448-5.152 0.107-1.739 0.469-3.424 1.099-5.045 0.619-1.632 1.472-3.136 2.549-4.501s2.336-2.549 3.765-3.541c1.44-0.981 2.987-1.739 4.651-2.251 1.664-0.523 3.371-0.779 5.12-0.779h64.981v-275.52c0-1.131 0.096-2.261 0.309-3.371s0.533-2.187 0.971-3.232c0.427-1.056 0.949-2.048 1.579-2.987 0.629-0.949 1.344-1.813 2.144-2.613s1.675-1.515 2.613-2.144c0.939-0.629 1.941-1.152 2.987-1.589 1.045-0.427 2.123-0.747 3.243-0.96 1.109-0.213 2.229-0.32 3.36-0.309h164.939c1.131-0.011 2.251 0.096 3.36 0.309s2.197 0.533 3.243 0.96c1.045 0.437 2.037 0.96 2.987 1.589 0.939 0.629 1.813 1.344 2.613 2.144s1.515 1.664 2.144 2.613c0.619 0.939 1.152 1.931 1.579 2.987 0.427 1.045 0.747 2.123 0.971 3.232 0.213 1.109 0.309 2.24 0.299 3.371v202.336h113.739v-202.336c-0.011-1.131 0.096-2.261 0.309-3.371s0.533-2.187 0.96-3.232c0.427-1.056 0.96-2.048 1.589-2.987 0.619-0.949 1.333-1.813 2.133-2.613s1.675-1.515 2.624-2.144c0.939-0.629 1.931-1.152 2.976-1.589 1.056-0.427 2.133-0.747 3.243-0.96s2.229-0.32 3.371-0.309h164.928c1.131-0.011 2.251 0.096 3.371 0.309 1.109 0.213 2.187 0.533 3.232 0.96 1.045 0.437 2.048 0.96 2.987 1.589s1.813 1.344 2.613 2.144c0.8 0.8 1.515 1.664 2.144 2.613 0.629 0.939 1.152 1.931 1.579 2.987 0.437 1.045 0.757 2.123 0.971 3.232s0.32 2.24 0.309 3.371v275.52h64.992c15.829 0 23.211 19.531 11.605 30.037l-321.269 289.045c-0.779 0.715-1.621 1.355-2.517 1.909-0.896 0.565-1.845 1.035-2.827 1.419-0.992 0.384-2.005 0.672-3.040 0.864-1.045 0.203-2.091 0.299-3.147 0.299-1.067 0-2.112-0.096-3.157-0.299-1.035-0.192-2.048-0.48-3.040-0.864-0.981-0.384-1.931-0.853-2.827-1.419-0.896-0.555-1.739-1.195-2.517-1.909z" />
<glyph unicode="&#xe933;" glyph-name="Progress-Bar" d="M860.075 456.48c4.192 37.899 36.363 67.371 75.424 67.371 41.909 0 75.883-33.931 75.883-75.776s-33.973-75.776-75.883-75.776c-39.051 0-71.221 29.461-75.413 67.349l-131.413-0.672c-4.501-37.557-36.512-66.677-75.339-66.677-38.731 0-70.677 28.971-75.307 66.4l-131.637-0.672c-4.917-37.099-36.725-65.728-75.221-65.728-38.4 0-70.144 28.491-75.179 65.451l-131.893-0.661c-5.333-36.64-36.928-64.789-75.093-64.789-41.909 0-75.883 33.931-75.883 75.776s33.973 75.776 75.883 75.776c39.936 0 72.672-30.805 75.659-69.931l130.901 0.672c3.307 38.795 35.893 69.259 75.605 69.259 39.616 0 72.139-30.315 75.584-68.981l131.061 0.672c3.755 38.347 36.139 68.309 75.52 68.309 39.285 0 71.605-29.824 75.488-68.032zM935.499 389.141c32.597 0 59.019 26.379 59.019 58.933s-26.421 58.933-59.019 58.933c-32.597 0-59.019-26.379-59.019-58.933s26.421-58.933 59.019-58.933zM653.333 389.141c32.597 0 59.019 26.379 59.019 58.933s-26.421 58.933-59.019 58.933c-32.597 0-59.019-26.379-59.019-58.933s26.421-58.933 59.019-58.933zM114.912 476.501l-34.048-45.237c-1.867-2.475-5.387-2.976-7.872-1.12-0.149 0.117-0.288 0.235-0.427 0.363l-15.872 14.581c-2.357 2.165-6.016 2.069-8.256-0.224-2.155-2.208-2.112-5.739 0.096-7.893 0.032-0.032 0.075-0.075 0.117-0.117l25.461-23.392c2.283-2.101 5.835-1.952 7.936 0.331 0.128 0.139 0.245 0.277 0.363 0.427l42.112 55.957c1.803 2.389 1.323 5.771-1.077 7.573-0.085 0.064-0.171 0.128-0.267 0.181-2.699 1.781-6.325 1.163-8.267-1.429zM397.077 476.501l-34.048-45.237c-1.867-2.475-5.387-2.976-7.872-1.12-0.149 0.117-0.288 0.235-0.427 0.363l-15.872 14.581c-2.357 2.165-6.016 2.069-8.256-0.224-2.155-2.208-2.112-5.739 0.096-7.893 0.032-0.032 0.075-0.075 0.117-0.117l25.461-23.392c2.283-2.101 5.835-1.952 7.936 0.331 0.128 0.139 0.245 0.277 0.363 0.427l42.112 55.957c1.803 2.389 1.323 5.771-1.077 7.573-0.085 0.064-0.171 0.128-0.267 0.181-2.699 1.781-6.325 1.163-8.267-1.429z" />
<glyph unicode="&#xe934;" glyph-name="Off" d="M964.587 512.309c3.296-4.512 6.229-9.259 8.779-14.229s4.693-10.112 6.421-15.424c1.739-5.312 3.051-10.731 3.925-16.245 0.885-5.525 1.323-11.072 1.323-16.661s-0.437-11.147-1.323-16.661c-0.875-5.525-2.187-10.933-3.925-16.245-1.728-5.312-3.872-10.453-6.421-15.435-2.549-4.971-5.483-9.707-8.779-14.219-115.68-160.064-281.333-251.979-454.336-251.979-49.312-0.011-97.536 7.221-144.683 21.664l120.224 120.224c3.339-0.512 6.699-0.928 10.069-1.248s6.741-0.544 10.133-0.661c3.381-0.117 6.763-0.139 10.144-0.064 3.381 0.085 6.763 0.256 10.144 0.533 3.371 0.277 6.731 0.651 10.080 1.12 3.349 0.48 6.688 1.045 10.005 1.717s6.613 1.44 9.888 2.304c3.275 0.853 6.517 1.813 9.739 2.869 3.211 1.056 6.4 2.197 9.547 3.435s6.261 2.571 9.333 3.989c3.072 1.429 6.101 2.933 9.088 4.533 2.976 1.6 5.909 3.285 8.8 5.056 2.88 1.781 5.707 3.627 8.491 5.568 2.773 1.941 5.483 3.957 8.149 6.048 2.656 2.101 5.248 4.277 7.776 6.528s4.992 4.565 7.381 6.965c2.4 2.389 4.715 4.853 6.965 7.381s4.427 5.12 6.517 7.776c2.101 2.656 4.117 5.376 6.059 8.149 1.931 2.773 3.787 5.611 5.557 8.491 1.771 2.891 3.456 5.824 5.056 8.8 1.6 2.987 3.115 6.016 4.533 9.088 1.429 3.072 2.752 6.176 4 9.333 1.237 3.147 2.379 6.325 3.435 9.547s2.005 6.464 2.869 9.739c0.864 3.275 1.632 6.56 2.304 9.888 0.661 3.317 1.237 6.645 1.707 10.005 0.48 3.349 0.853 6.709 1.131 10.080 0.277 3.381 0.448 6.752 0.533 10.144 0.075 3.381 0.053 6.763-0.064 10.144-0.128 3.381-0.341 6.763-0.661 10.133s-0.736 6.72-1.248 10.069l163.552 163.563c44.747-36.811 84-78.752 117.781-125.813zM989.291 879.371l-908.661-908.661c-31.627-32.619-81.888 17.845-49.419 49.419l199.584 199.584c-34.144 22.176-65.92 47.339-95.328 75.499s-55.915 58.827-79.552 91.979c-3.296 4.512-6.219 9.248-8.768 14.219-2.549 4.981-4.693 10.123-6.432 15.435s-3.040 10.72-3.925 16.245c-0.875 5.515-1.312 11.072-1.312 16.661s0.437 11.136 1.312 16.661c0.885 5.515 2.187 10.933 3.925 16.245s3.883 10.453 6.432 15.424c2.549 4.971 5.472 9.717 8.768 14.229 115.68 160.064 281.344 251.979 454.336 251.979 37.355-0.032 74.251-4.213 110.667-12.544s71.456-20.597 105.109-36.8l213.856 213.845c31.584 32.544 81.952-17.845 49.408-49.419zM363.563 352.469l51.701 51.712c-2.251 4.896-4.117 9.92-5.611 15.104-1.483 5.173-2.56 10.432-3.253 15.776-0.683 5.344-0.949 10.709-0.821 16.085 0.139 5.387 0.672 10.731 1.621 16.032s2.293 10.496 4.032 15.595c1.739 5.099 3.861 10.037 6.347 14.805 2.496 4.779 5.333 9.333 8.523 13.675s6.688 8.416 10.496 12.224c3.808 3.808 7.883 7.307 12.224 10.496s8.896 6.027 13.675 8.523c4.768 2.485 9.707 4.608 14.805 6.347s10.293 3.083 15.595 4.032c5.301 0.949 10.645 1.483 16.032 1.621 5.387 0.128 10.741-0.139 16.085-0.821 5.344-0.693 10.603-1.771 15.776-3.264 5.184-1.483 10.219-3.349 15.104-5.6l51.637 51.627c-14.667 8.96-30.251 15.808-46.752 20.576-16.512 4.757-33.344 7.253-50.528 7.477-3.136 0.064-6.272 0.043-9.408-0.075-3.136-0.107-6.272-0.299-9.397-0.587-3.125-0.277-6.24-0.651-9.344-1.099s-6.197-0.992-9.269-1.611c-3.083-0.619-6.133-1.323-9.173-2.112s-6.048-1.664-9.045-2.613c-2.987-0.96-5.941-1.995-8.875-3.104-2.933-1.12-5.835-2.315-8.704-3.595-2.869-1.269-5.696-2.624-8.491-4.053s-5.547-2.933-8.256-4.523c-2.709-1.579-5.376-3.232-8-4.96s-5.195-3.52-7.712-5.387c-2.528-1.867-4.992-3.808-7.403-5.813-2.421-2.005-4.779-4.064-7.083-6.197s-4.544-4.331-6.731-6.581c-2.176-2.261-4.299-4.576-6.357-6.944-2.048-2.368-4.043-4.8-5.963-7.275-1.92-2.485-3.776-5.013-5.557-7.595-1.792-2.581-3.499-5.205-5.141-7.883s-3.211-5.397-4.693-8.16c-1.493-2.763-2.912-5.557-4.245-8.395-1.344-2.848-2.603-5.717-3.776-8.629-1.184-2.901-2.283-5.845-3.307-8.811-1.013-2.965-1.952-5.963-2.805-8.981s-1.632-6.059-2.315-9.12c-0.693-3.061-1.301-6.144-1.813-9.237-0.523-3.093-0.96-6.197-1.312-9.323-0.352-3.115-0.608-6.24-0.789-9.376-0.181-3.125-0.277-6.261-0.277-9.408-0.011-3.136 0.064-6.272 0.235-9.408 0.16-3.125 0.416-6.261 0.747-9.376 0.341-3.125 0.757-6.229 1.269-9.323 1.504-12.917 4.469-25.483 8.896-37.707 4.427-12.213 10.197-23.765 17.312-34.645z" />
<glyph unicode="&#xe935;" d="M-102.4 1062.4h1228.8v-1228.8h-1228.8v1228.8z" />
<glyph unicode="&#xe936;" d="M795.819 425.824c-43.189-168.587-138.603-276.032-283.605-319.413-144.821 43.317-240.181 150.539-283.467 318.763-27.115 105.397-24.267 203.339-22.357 235.157 135.392 4.288 248.352 84.107 305.835 125.803 57.131-41.291 170.4-121.504 305.781-125.803 1.909-31.723 4.789-129.195-22.187-234.507zM841.419 673.547c-0.619 6.219-5.856 10.955-12.107 10.955-135.072 0-246.261 80.437-306.005 123.648l-3.968 2.88c-4.267 3.072-10.027 3.072-14.272-0.011l-3.083-2.24c-55.541-40.341-171.136-124.277-306.912-124.277-6.24 0-11.477-4.736-12.107-10.955-0.501-4.907-11.787-121.792 22.027-253.76 45.173-176.309 150.229-293.109 303.819-337.76 1.109-0.32 2.251-0.48 3.403-0.48 1.141 0 2.283 0.16 3.392 0.48 153.568 44.651 258.624 161.451 303.797 337.76 33.803 131.968 22.517 248.853 22.016 253.76z" />
<glyph unicode="&#xe937;" d="M646.613 542.645l-156.117-203.221c-4.075-5.301-10.123-8.725-16.757-9.493-0.949-0.107-1.888-0.16-2.837-0.16-5.675 0-11.211 1.952-15.659 5.579l-78.645 64.395c-10.56 8.651-12.117 24.203-3.477 34.763 8.651 10.549 24.213 12.107 34.773 3.467l58.944-48.245 140.576 183.008c8.32 10.837 23.829 12.853 34.656 4.555 10.816-8.32 12.853-23.819 4.544-34.645zM512.192 738.624c-52.768-38.059-148.779-102.955-264.32-110.037-3.040-80.992 2.485-395.019 264.32-475.957 261.813 80.939 267.339 394.965 264.32 475.957-115.552 7.136-211.84 72.245-264.32 110.037z" />
<glyph unicode="&#xe938;" d="M-102.4 1062.4h1228.8v-1228.8h-1228.8v1228.8z" />
<glyph unicode="&#xe939;" d="M640.917 504.309l-66.624 67.189c-0.053 0-0.053 0.064-0.053 0.064l-27.467 27.733c-19.36-18.731-40.107-34.88-61.696-48.693l149.963-151.381 33.931 76.747-28.053 28.341z" />
<glyph unicode="&#xe93a;" d="M464.395 538.176c-97.376-54.709-208.544-65.813-291.829-55.243 6.229-30.208 16.128-60.885 29.621-91.509 3.232-0.725 9.835-1.024 14.027-1.205 14.208-0.661 27.701-1.259 33.099-11.765 5.813-11.232-0.299-24.085-6.24-36.512-2.389-4.928-6.229-13.035-6.347-16.277 33.035-53.493 74.944-100.928 121.472-137.44 6.475 2.283 20.512 10.507 30.165 16.149 29.323 17.237 41.611 23.957 51.627 17.291 13.611-9.067 4.619-26.891-7.861-51.637-3.413-6.72-8.629-16.992-10.784-23.051 29.077-15.317 58.635-26.005 88.021-31.893l115.477 261.141-160.448 161.952z" />
<glyph unicode="&#xe93b;" d="M812.576 780.523c-9.408 0-18.283-3.723-25.003-10.453l-188.512-190.283 50.123-50.624 188.395 190.165c13.856 13.995 13.856 36.757 0 50.741-6.709 6.731-15.584 10.453-25.003 10.453z" />
<glyph unicode="&#xe93c;" glyph-name="Food" d="M704.683 418.197v-234.123c0 0 4.011-39.125-34.325-39.125-38.315 0-45.515 35.157-45.515 35.157v238.123c-48.907 22.699-84.309 84.96-84.309 159.072 0 93.248 55.616 168.821 124.277 168.821s124.352-75.573 124.352-168.821c0-74.176-35.467-136.469-84.48-159.104zM398.443 408.523v-213.259c0 0 0.875-45.931-37.259-45.931-38.155 0-38.155 45.045-38.155 45.045v215.019c0 0-79.253 14.741-86.165 92.757-6.944 78.091 6.059 212.437 6.059 212.437s5.216 27.787 23.413 27.787c18.229 0 21.675-30.389 21.675-30.389v-163.829c-1.077-10.571 10.869-22.528 28.597-22.528 24.288 0 24.288 17.312 24.288 17.312v167.349c0 0 3.499 34.656 24.299 34.656 20.789 0 20.789-35.531 20.789-35.531v-168.405c0 0-0.576-19.456 21.781-19.456 27.712 0 27.189 18.155 27.189 18.155v170.581c0 0-2.144 40.715 27.328 40.715 23.413 0 24.288-39.861 24.288-39.861s2.251-190.251 2.251-213.653c0-23.413-23.605-65.557-90.379-88.971zM512.011 959.968c-282.315 0-511.979-229.664-511.979-511.968s229.664-511.968 511.979-511.968c282.293 0 511.957 229.664 511.957 511.968s-229.664 511.968-511.957 511.968z" />
<glyph unicode="&#xe93d;" glyph-name="Exit" d="M951.787 187.765l-259.307 259.307 240.597 240.587c45.504 45.461 45.504 119.189 0 164.693-45.44 45.472-119.211 45.451-164.683 0l-240.587-240.619-252.363 252.395c-45.493 45.472-119.221 45.472-164.693 0-45.461-45.493-45.461-119.189 0-164.683l252.395-252.373-271.072-271.061c-45.493-45.504-45.493-119.221 0-164.693 45.451-45.472 119.189-45.472 164.64 0l271.093 271.083 259.317-259.296c45.451-45.472 119.189-45.472 164.661 0s45.472 119.221 0 164.661zM521.909-456.448c-501.259 0-909.067 407.819-909.067 909.099 0 501.269 407.808 909.077 909.067 909.077 501.28 0 909.099-407.808 909.099-909.077 0-501.28-407.819-909.099-909.099-909.099zM521.909 1272.064c-451.819 0-819.403-367.595-819.403-819.413 0-451.829 367.584-819.435 819.403-819.435 451.829 0 819.435 367.605 819.435 819.435 0 451.819-367.605 819.413-819.435 819.413z" />
<glyph unicode="&#xe93e;" glyph-name="Check" d="M978.859 820.213l-6.336 4.757c-20.587 16.629-45.931 23.765-69.696 21.387-25.344-2.379-48.309-13.472-64.939-33.28l-213.824-251.957-219.371-264.64-63.36 67.349-160.768 167.968c-18.219 19.019-41.973 28.533-67.317 30.112-23.755 1.589-49.099-8.715-67.317-26.144l-6.336-6.336c-38.805-35.659-39.595-97.461-3.957-135.499l123.541-129.941 35.648-38.827 142.549-149.749c16.629-16.64 38.805-27.733 60.181-28.523 1.589 0 1.589 0 2.379 0 1.589 0 2.379 0 4.757 0 0 0 0 0 1.579 0 3.957 0 7.125 0 11.883 0 25.344 2.379 48.309 13.472 64.939 33.28l212.245 251.957 83.157 100.629 212.245 251.968c33.259 40.405 28.512 100.619-11.883 135.488z" />
</font>
</defs>
</svg>
