<svg xmlns="http://www.w3.org/2000/svg" xmlns:xlink="http://www.w3.org/1999/xlink" width="500" zoomAndPan="magnify" viewBox="0 0 375 374.999991" height="500" preserveAspectRatio="xMidYMid meet" version="1.0"><defs><clipPath id="50678ac02e"><path d="M 3 41 L 371 41 L 371 334.566406 L 3 334.566406 Z M 3 41 " clip-rule="nonzero"/></clipPath></defs><g clip-path="url(#50678ac02e)"><path fill="#000000" d="M 358.46875 51.191406 L 356.148438 49.449219 C 348.609375 43.359375 339.328125 40.746094 330.625 41.617188 C 321.34375 42.488281 312.933594 46.550781 306.84375 53.804688 L 228.539062 146.074219 L 182.132812 202.078125 L 148.203125 242.988281 L 125 218.324219 L 111.949219 204.6875 L 66.125 156.8125 C 59.453125 149.847656 50.753906 146.363281 41.472656 145.785156 C 32.773438 145.203125 23.492188 148.976562 16.820312 155.359375 L 14.5 157.679688 C 0.289062 170.738281 0 193.371094 13.050781 207.300781 L 58.292969 254.886719 L 71.347656 269.105469 L 123.550781 323.945312 C 129.640625 330.039062 137.761719 334.101562 145.589844 334.390625 C 146.171875 334.390625 146.171875 334.390625 146.460938 334.390625 C 147.042969 334.390625 147.332031 334.390625 148.203125 334.390625 C 148.203125 334.390625 148.203125 334.390625 148.78125 334.390625 C 150.230469 334.390625 151.390625 334.390625 153.132812 334.390625 C 162.414062 333.519531 170.824219 329.457031 176.914062 322.203125 L 254.640625 229.933594 L 285.09375 193.082031 L 362.820312 100.808594 C 375 86.011719 373.261719 63.960938 358.46875 51.191406 Z M 358.46875 51.191406 " fill-opacity="1" fill-rule="nonzero"/></g></svg>