<svg xmlns="http://www.w3.org/2000/svg" xmlns:xlink="http://www.w3.org/1999/xlink" width="500" zoomAndPan="magnify" viewBox="0 0 375 374.999991" height="500" preserveAspectRatio="xMidYMid meet" version="1.0"><path fill="#000000" d="M 258.0625 198.414062 L 258.0625 284.152344 C 258.0625 284.152344 259.53125 298.480469 245.492188 298.480469 C 231.460938 298.480469 228.824219 285.605469 228.824219 285.605469 L 228.824219 198.402344 C 210.914062 190.089844 197.949219 167.289062 197.949219 140.148438 C 197.949219 106 218.316406 78.324219 243.460938 78.324219 C 268.605469 78.324219 289 106 289 140.148438 C 289 167.3125 276.011719 190.125 258.0625 198.414062 Z M 145.914062 201.957031 L 145.914062 280.054688 C 145.914062 280.054688 146.234375 296.875 132.269531 296.875 C 118.296875 296.875 118.296875 280.378906 118.296875 280.378906 L 118.296875 201.636719 C 118.296875 201.636719 89.273438 196.238281 86.742188 167.667969 C 84.199219 139.070312 88.960938 89.871094 88.960938 89.871094 C 88.960938 89.871094 90.871094 79.695312 97.535156 79.695312 C 104.210938 79.695312 105.472656 90.824219 105.472656 90.824219 L 105.472656 150.820312 C 105.078125 154.691406 109.453125 159.070312 115.945312 159.070312 C 124.839844 159.070312 124.839844 152.730469 124.839844 152.730469 L 124.839844 91.445312 C 124.839844 91.445312 126.121094 78.753906 133.738281 78.753906 C 141.351562 78.753906 141.351562 91.765625 141.351562 91.765625 L 141.351562 153.4375 C 141.351562 153.4375 141.140625 160.5625 149.328125 160.5625 C 159.476562 160.5625 159.285156 153.914062 159.285156 153.914062 L 159.285156 91.445312 C 159.285156 91.445312 158.5 76.535156 169.292969 76.535156 C 177.867188 76.535156 178.1875 91.132812 178.1875 91.132812 C 178.1875 91.132812 179.011719 160.804688 179.011719 169.375 C 179.011719 177.949219 170.367188 193.382812 145.914062 201.957031 Z M 187.503906 0.0117188 C 84.117188 0.0117188 0.0117188 84.117188 0.0117188 187.5 C 0.0117188 290.882812 84.117188 374.988281 187.503906 374.988281 C 290.882812 374.988281 374.988281 290.882812 374.988281 187.5 C 374.988281 84.117188 290.882812 0.0117188 187.503906 0.0117188 " fill-opacity="1" fill-rule="nonzero"/></svg>