<svg xmlns="http://www.w3.org/2000/svg" xmlns:xlink="http://www.w3.org/1999/xlink" width="500" zoomAndPan="magnify" viewBox="0 0 375 374.999991" height="500" preserveAspectRatio="xMidYMid meet" version="1.0"><defs><clipPath id="06717c922d"><path d="M 187.5 0 C 83.945312 0 0 83.945312 0 187.5 C 0 291.054688 83.945312 375 187.5 375 C 291.054688 375 375 291.054688 375 187.5 C 375 83.945312 291.054688 0 187.5 0 Z M 187.5 0 " clip-rule="nonzero"/></clipPath><clipPath id="7f1fc7ccee"><path d="M 141 294 L 160 294 L 160 312.238281 L 141 312.238281 Z M 141 294 " clip-rule="nonzero"/></clipPath><clipPath id="b5b8acc0e1"><path d="M 215 294 L 234 294 L 234 312.238281 L 215 312.238281 Z M 215 294 " clip-rule="nonzero"/></clipPath><clipPath id="9c38ad3b33"><path d="M 175 62.488281 L 206 62.488281 L 206 93 L 175 93 Z M 175 62.488281 " clip-rule="nonzero"/></clipPath><clipPath id="cd56d1575d"><path d="M 204 62.488281 L 267 62.488281 L 267 78 L 204 78 Z M 204 62.488281 " clip-rule="nonzero"/></clipPath></defs><g clip-path="url(#06717c922d)"><rect x="-37.5" width="450" fill="#000000" y="-37.499999" height="449.999989" fill-opacity="1"/></g><path fill="#ffffff" d="M 225.167969 252.628906 L 194.992188 274.398438 L 217.183594 290.410156 C 214.503906 291.910156 212.34375 294.226562 211.039062 297.023438 L 187.332031 279.921875 L 163.625 297.023438 C 162.324219 294.226562 160.164062 291.910156 157.484375 290.410156 L 179.675781 274.398438 L 149.5 252.628906 L 164.8125 252.628906 L 187.332031 268.875 L 209.855469 252.628906 Z M 225.167969 252.628906 " fill-opacity="1" fill-rule="nonzero"/><g clip-path="url(#7f1fc7ccee)"><path fill="#ffffff" d="M 150.34375 294.101562 C 155.363281 294.101562 159.429688 298.167969 159.429688 303.1875 C 159.429688 308.203125 155.363281 312.269531 150.34375 312.269531 C 145.328125 312.269531 141.257812 308.203125 141.257812 303.1875 C 141.257812 298.167969 145.328125 294.101562 150.34375 294.101562 Z M 150.34375 294.101562 " fill-opacity="1" fill-rule="nonzero"/></g><g clip-path="url(#b5b8acc0e1)"><path fill="#ffffff" d="M 224.320312 294.101562 C 229.339844 294.101562 233.40625 298.167969 233.40625 303.1875 C 233.40625 308.203125 229.339844 312.269531 224.320312 312.269531 C 219.300781 312.269531 215.234375 308.203125 215.234375 303.1875 C 215.234375 298.167969 219.300781 294.101562 224.320312 294.101562 Z M 224.320312 294.101562 " fill-opacity="1" fill-rule="nonzero"/></g><path fill="#ffffff" d="M 100.570312 222.503906 L 298.359375 222.503906 L 298.359375 247.078125 C 228.386719 247.078125 158.410156 247.082031 88.4375 247.082031 C 81.765625 247.082031 76.304688 241.621094 76.304688 234.953125 L 76.304688 157.371094 C 76.304688 150.699219 81.765625 145.242188 88.4375 145.242188 C 95.109375 145.242188 100.570312 150.699219 100.570312 157.371094 Z M 100.570312 222.503906 " fill-opacity="1" fill-rule="evenodd"/><path fill="#ffffff" d="M 106.128906 216.945312 L 298.359375 216.945312 L 298.359375 204.183594 C 298.359375 199.191406 294.273438 195.105469 289.277344 195.105469 L 106.128906 195.105469 Z M 106.128906 216.945312 " fill-opacity="1" fill-rule="evenodd"/><path fill="#ffffff" d="M 106.128906 189.546875 L 135.824219 189.546875 L 135.824219 177.097656 C 135.824219 170.25 130.21875 164.648438 123.371094 164.648438 L 106.128906 164.648438 Z M 106.128906 189.546875 " fill-opacity="1" fill-rule="evenodd"/><g clip-path="url(#9c38ad3b33)"><path fill="#ffffff" d="M 205.269531 77.371094 C 205.269531 78.351562 205.175781 79.320312 204.984375 80.28125 C 204.792969 81.242188 204.511719 82.175781 204.136719 83.082031 C 203.761719 83.988281 203.300781 84.847656 202.753906 85.660156 C 202.210938 86.476562 201.59375 87.230469 200.898438 87.921875 C 200.207031 88.613281 199.453125 89.234375 198.636719 89.777344 C 197.824219 90.320312 196.964844 90.78125 196.058594 91.15625 C 195.152344 91.53125 194.21875 91.8125 193.257812 92.003906 C 192.296875 92.195312 191.328125 92.292969 190.347656 92.292969 C 189.367188 92.292969 188.394531 92.195312 187.433594 92.003906 C 186.472656 91.8125 185.539062 91.53125 184.636719 91.15625 C 183.730469 90.78125 182.871094 90.320312 182.054688 89.777344 C 181.238281 89.234375 180.484375 88.613281 179.792969 87.921875 C 179.101562 87.230469 178.480469 86.476562 177.9375 85.660156 C 177.390625 84.847656 176.933594 83.988281 176.558594 83.082031 C 176.183594 82.175781 175.898438 81.242188 175.707031 80.28125 C 175.515625 79.320312 175.421875 78.351562 175.421875 77.371094 C 175.421875 76.390625 175.515625 75.421875 175.707031 74.460938 C 175.898438 73.5 176.183594 72.566406 176.558594 71.664062 C 176.933594 70.757812 177.390625 69.898438 177.9375 69.082031 C 178.480469 68.269531 179.101562 67.515625 179.792969 66.824219 C 180.484375 66.128906 181.238281 65.511719 182.054688 64.96875 C 182.871094 64.421875 183.730469 63.964844 184.636719 63.589844 C 185.539062 63.214844 186.472656 62.929688 187.433594 62.738281 C 188.394531 62.546875 189.367188 62.453125 190.347656 62.453125 C 191.328125 62.453125 192.296875 62.546875 193.257812 62.738281 C 194.21875 62.929688 195.152344 63.214844 196.058594 63.589844 C 196.964844 63.964844 197.824219 64.421875 198.636719 64.96875 C 199.453125 65.511719 200.207031 66.128906 200.898438 66.824219 C 201.59375 67.515625 202.210938 68.269531 202.753906 69.082031 C 203.300781 69.898438 203.761719 70.757812 204.136719 71.664062 C 204.511719 72.566406 204.792969 73.5 204.984375 74.460938 C 205.175781 75.421875 205.269531 76.390625 205.269531 77.371094 Z M 205.269531 77.371094 " fill-opacity="1" fill-rule="nonzero"/></g><path fill="#ffffff" d="M 170.652344 128.074219 L 210.042969 128.074219 C 213.765625 128.074219 216.8125 131.117188 216.8125 134.839844 L 216.8125 141.609375 L 163.882812 141.609375 L 163.882812 134.839844 C 163.882812 131.117188 166.929688 128.074219 170.652344 128.074219 Z M 170.652344 128.074219 " fill-opacity="1" fill-rule="evenodd"/><path fill="#ffffff" d="M 194.515625 158 C 194.515625 155.695312 192.648438 153.828125 190.347656 153.828125 C 188.042969 153.828125 186.175781 155.695312 186.175781 158 L 186.175781 177.355469 C 186.175781 179.65625 188.042969 181.523438 190.347656 181.523438 C 192.648438 181.523438 194.515625 179.65625 194.515625 177.355469 Z M 194.515625 158 " fill-opacity="1" fill-rule="nonzero"/><path fill="#ffffff" d="M 205.367188 150.050781 C 203.742188 148.425781 201.101562 148.425781 199.472656 150.050781 C 197.84375 151.679688 197.84375 154.320312 199.472656 155.945312 L 213.164062 169.632812 C 214.792969 171.261719 217.429688 171.261719 219.058594 169.632812 C 220.6875 168.003906 220.6875 165.367188 219.058594 163.738281 Z M 205.367188 150.050781 " fill-opacity="1" fill-rule="nonzero"/><path fill="#ffffff" d="M 181.222656 155.945312 C 182.851562 154.320312 182.851562 151.679688 181.222656 150.050781 C 179.59375 148.425781 176.953125 148.425781 175.324219 150.050781 L 161.632812 163.738281 C 160.007812 165.367188 160.007812 168.003906 161.632812 169.632812 C 163.261719 171.261719 165.902344 171.261719 167.53125 169.632812 Z M 181.222656 155.945312 " fill-opacity="1" fill-rule="nonzero"/><path fill="#ffffff" d="M 183.699219 96.746094 L 183.699219 115.230469 L 196.996094 115.230469 L 196.996094 96.746094 C 194.910156 97.460938 192.675781 97.851562 190.347656 97.851562 C 188.019531 97.851562 185.785156 97.460938 183.699219 96.746094 Z M 183.699219 96.746094 " fill-opacity="1" fill-rule="evenodd"/><path fill="#ffffff" d="M 171.738281 128.769531 L 208.957031 128.769531 L 208.957031 121.304688 C 208.957031 117.582031 205.910156 114.539062 202.1875 114.539062 L 196.996094 114.535156 L 183.699219 114.535156 L 178.507812 114.539062 C 174.785156 114.539062 171.738281 117.582031 171.738281 121.304688 Z M 171.738281 128.769531 " fill-opacity="1" fill-rule="evenodd"/><g clip-path="url(#cd56d1575d)"><path fill="#ffffff" d="M 210.832031 77.371094 L 266.871094 77.371094 L 266.871094 62.453125 L 204.375 62.453125 C 208.347656 66.1875 210.832031 71.492188 210.832031 77.371094 Z M 210.832031 77.371094 " fill-opacity="1" fill-rule="evenodd"/></g></svg>