<svg xmlns="http://www.w3.org/2000/svg" xmlns:xlink="http://www.w3.org/1999/xlink" width="500" zoomAndPan="magnify" viewBox="0 0 375 374.999991" height="500" preserveAspectRatio="xMidYMid meet" version="1.0"><defs><clipPath id="6397346613"><path d="M 187.5 0 C 83.945312 0 0 83.945312 0 187.5 C 0 291.054688 83.945312 375 187.5 375 C 291.054688 375 375 291.054688 375 187.5 C 375 83.945312 291.054688 0 187.5 0 Z M 187.5 0 " clip-rule="nonzero"/></clipPath><clipPath id="1df4af1269"><path d="M 179 87.96875 L 221 87.96875 L 221 130 L 179 130 Z M 179 87.96875 " clip-rule="nonzero"/></clipPath><clipPath id="ae01953dbf"><path d="M 79.609375 212 L 122 212 L 122 254 L 79.609375 254 Z M 79.609375 212 " clip-rule="nonzero"/></clipPath><clipPath id="9e2221ef6d"><path d="M 79.609375 270 L 295.609375 270 L 295.609375 286.71875 L 79.609375 286.71875 Z M 79.609375 270 " clip-rule="nonzero"/></clipPath><clipPath id="4025e33c91"><path d="M 79.609375 261 L 130 261 L 130 286.71875 L 79.609375 286.71875 Z M 79.609375 261 " clip-rule="nonzero"/></clipPath><clipPath id="de5c9c7953"><path d="M 121 228 L 295.609375 228 L 295.609375 262 L 121 262 Z M 121 228 " clip-rule="nonzero"/></clipPath></defs><g clip-path="url(#6397346613)"><rect x="-37.5" width="450" fill="#000000" y="-37.499999" height="449.999989" fill-opacity="1"/></g><g clip-path="url(#1df4af1269)"><path fill="#ffffff" d="M 220.816406 108.671875 C 220.816406 109.351562 220.785156 110.027344 220.71875 110.703125 C 220.652344 111.375 220.550781 112.046875 220.417969 112.710938 C 220.285156 113.375 220.121094 114.035156 219.925781 114.683594 C 219.726562 115.332031 219.496094 115.96875 219.238281 116.59375 C 218.976562 117.222656 218.6875 117.832031 218.367188 118.433594 C 218.046875 119.03125 217.699219 119.609375 217.320312 120.175781 C 216.941406 120.738281 216.539062 121.28125 216.105469 121.804688 C 215.675781 122.332031 215.21875 122.832031 214.738281 123.3125 C 214.257812 123.792969 213.753906 124.246094 213.230469 124.675781 C 212.703125 125.105469 212.160156 125.511719 211.59375 125.886719 C 211.027344 126.261719 210.445312 126.613281 209.847656 126.929688 C 209.246094 127.25 208.632812 127.539062 208.003906 127.800781 C 207.375 128.058594 206.738281 128.289062 206.085938 128.484375 C 205.4375 128.679688 204.777344 128.84375 204.109375 128.976562 C 203.445312 129.109375 202.773438 129.210938 202.097656 129.277344 C 201.417969 129.34375 200.742188 129.375 200.0625 129.375 C 199.382812 129.375 198.703125 129.34375 198.027344 129.277344 C 197.351562 129.210938 196.679688 129.109375 196.011719 128.976562 C 195.34375 128.84375 194.6875 128.679688 194.035156 128.484375 C 193.386719 128.289062 192.746094 128.058594 192.117188 127.800781 C 191.492188 127.539062 190.875 127.25 190.277344 126.929688 C 189.675781 126.613281 189.09375 126.261719 188.53125 125.886719 C 187.964844 125.511719 187.417969 125.105469 186.894531 124.675781 C 186.367188 124.246094 185.867188 123.792969 185.382812 123.3125 C 184.902344 122.832031 184.449219 122.332031 184.015625 121.804688 C 183.585938 121.28125 183.179688 120.738281 182.804688 120.175781 C 182.425781 119.609375 182.078125 119.03125 181.757812 118.433594 C 181.4375 117.832031 181.144531 117.222656 180.886719 116.59375 C 180.625 115.96875 180.394531 115.332031 180.199219 114.683594 C 180 114.035156 179.835938 113.375 179.703125 112.710938 C 179.570312 112.046875 179.472656 111.375 179.40625 110.703125 C 179.339844 110.027344 179.304688 109.351562 179.304688 108.671875 C 179.304688 107.996094 179.339844 107.316406 179.40625 106.644531 C 179.472656 105.96875 179.570312 105.296875 179.703125 104.632812 C 179.835938 103.96875 180 103.3125 180.199219 102.664062 C 180.394531 102.015625 180.625 101.375 180.886719 100.75 C 181.144531 100.125 181.4375 99.511719 181.757812 98.914062 C 182.078125 98.316406 182.425781 97.734375 182.804688 97.171875 C 183.179688 96.605469 183.585938 96.0625 184.015625 95.539062 C 184.449219 95.015625 184.902344 94.511719 185.382812 94.035156 C 185.867188 93.554688 186.367188 93.097656 186.894531 92.667969 C 187.417969 92.238281 187.964844 91.835938 188.53125 91.457031 C 189.09375 91.082031 189.675781 90.734375 190.277344 90.414062 C 190.875 90.09375 191.492188 89.804688 192.117188 89.546875 C 192.746094 89.285156 193.386719 89.058594 194.035156 88.859375 C 194.6875 88.664062 195.34375 88.5 196.011719 88.367188 C 196.679688 88.234375 197.351562 88.136719 198.027344 88.070312 C 198.703125 88.003906 199.382812 87.96875 200.0625 87.96875 C 200.742188 87.96875 201.417969 88.003906 202.097656 88.070312 C 202.773438 88.136719 203.445312 88.234375 204.109375 88.367188 C 204.777344 88.5 205.4375 88.664062 206.085938 88.859375 C 206.738281 89.058594 207.375 89.285156 208.003906 89.546875 C 208.632812 89.804688 209.246094 90.09375 209.847656 90.414062 C 210.445312 90.734375 211.027344 91.082031 211.59375 91.457031 C 212.160156 91.835938 212.703125 92.238281 213.230469 92.667969 C 213.753906 93.097656 214.257812 93.554688 214.738281 94.035156 C 215.21875 94.511719 215.675781 95.015625 216.105469 95.539062 C 216.539062 96.0625 216.941406 96.605469 217.320312 97.171875 C 217.699219 97.734375 218.046875 98.316406 218.367188 98.914062 C 218.6875 99.511719 218.976562 100.125 219.238281 100.75 C 219.496094 101.375 219.726562 102.015625 219.925781 102.664062 C 220.121094 103.3125 220.285156 103.96875 220.417969 104.632812 C 220.550781 105.296875 220.652344 105.96875 220.71875 106.644531 C 220.785156 107.316406 220.816406 107.996094 220.816406 108.671875 Z M 220.816406 108.671875 " fill-opacity="1" fill-rule="nonzero"/></g><g clip-path="url(#ae01953dbf)"><path fill="#ffffff" d="M 121.1875 232.890625 C 121.1875 233.570312 121.15625 234.246094 121.085938 234.921875 C 121.019531 235.59375 120.921875 236.265625 120.789062 236.929688 C 120.65625 237.59375 120.492188 238.253906 120.292969 238.902344 C 120.097656 239.550781 119.867188 240.1875 119.609375 240.8125 C 119.347656 241.441406 119.058594 242.050781 118.738281 242.652344 C 118.417969 243.25 118.066406 243.828125 117.691406 244.394531 C 117.3125 244.957031 116.90625 245.5 116.476562 246.023438 C 116.046875 246.550781 115.589844 247.050781 115.109375 247.53125 C 114.628906 248.011719 114.125 248.464844 113.597656 248.894531 C 113.074219 249.324219 112.527344 249.730469 111.964844 250.105469 C 111.398438 250.480469 110.816406 250.832031 110.214844 251.148438 C 109.617188 251.46875 109.003906 251.757812 108.375 252.019531 C 107.746094 252.277344 107.105469 252.507812 106.457031 252.703125 C 105.804688 252.898438 105.148438 253.0625 104.480469 253.195312 C 103.8125 253.328125 103.140625 253.429688 102.464844 253.496094 C 101.789062 253.5625 101.109375 253.59375 100.429688 253.59375 C 99.75 253.59375 99.074219 253.5625 98.398438 253.496094 C 97.71875 253.429688 97.050781 253.328125 96.382812 253.195312 C 95.714844 253.0625 95.058594 252.898438 94.40625 252.703125 C 93.753906 252.507812 93.117188 252.277344 92.488281 252.019531 C 91.859375 251.757812 91.246094 251.46875 90.648438 251.148438 C 90.046875 250.832031 89.464844 250.480469 88.898438 250.105469 C 88.335938 249.730469 87.789062 249.324219 87.265625 248.894531 C 86.738281 248.464844 86.234375 248.011719 85.753906 247.53125 C 85.273438 247.050781 84.816406 246.550781 84.386719 246.023438 C 83.957031 245.5 83.550781 244.957031 83.171875 244.394531 C 82.796875 243.828125 82.445312 243.25 82.125 242.652344 C 81.804688 242.050781 81.515625 241.441406 81.253906 240.8125 C 80.996094 240.1875 80.765625 239.550781 80.570312 238.902344 C 80.371094 238.253906 80.207031 237.59375 80.074219 236.929688 C 79.941406 236.265625 79.84375 235.59375 79.773438 234.921875 C 79.707031 234.246094 79.675781 233.570312 79.675781 232.890625 C 79.675781 232.214844 79.707031 231.535156 79.773438 230.863281 C 79.84375 230.1875 79.941406 229.515625 80.074219 228.851562 C 80.207031 228.1875 80.371094 227.53125 80.570312 226.882812 C 80.765625 226.234375 80.996094 225.59375 81.253906 224.96875 C 81.515625 224.34375 81.804688 223.730469 82.125 223.132812 C 82.445312 222.535156 82.796875 221.953125 83.171875 221.390625 C 83.550781 220.824219 83.957031 220.28125 84.386719 219.757812 C 84.816406 219.234375 85.273438 218.730469 85.753906 218.253906 C 86.234375 217.773438 86.738281 217.316406 87.265625 216.886719 C 87.789062 216.457031 88.335938 216.054688 88.898438 215.675781 C 89.464844 215.300781 90.046875 214.953125 90.648438 214.632812 C 91.246094 214.3125 91.859375 214.023438 92.488281 213.765625 C 93.117188 213.503906 93.753906 213.277344 94.40625 213.078125 C 95.058594 212.882812 95.714844 212.71875 96.382812 212.585938 C 97.050781 212.453125 97.71875 212.355469 98.398438 212.289062 C 99.074219 212.222656 99.75 212.1875 100.429688 212.1875 C 101.109375 212.1875 101.789062 212.222656 102.464844 212.289062 C 103.140625 212.355469 103.8125 212.453125 104.480469 212.585938 C 105.148438 212.71875 105.804688 212.882812 106.457031 213.078125 C 107.105469 213.277344 107.746094 213.503906 108.375 213.765625 C 109.003906 214.023438 109.617188 214.3125 110.214844 214.632812 C 110.816406 214.953125 111.398438 215.300781 111.964844 215.675781 C 112.527344 216.054688 113.074219 216.457031 113.597656 216.886719 C 114.125 217.316406 114.628906 217.773438 115.109375 218.253906 C 115.589844 218.730469 116.046875 219.234375 116.476562 219.757812 C 116.90625 220.28125 117.3125 220.824219 117.691406 221.390625 C 118.066406 221.953125 118.417969 222.535156 118.738281 223.132812 C 119.058594 223.730469 119.347656 224.34375 119.609375 224.96875 C 119.867188 225.59375 120.097656 226.234375 120.292969 226.882812 C 120.492188 227.53125 120.65625 228.1875 120.789062 228.851562 C 120.921875 229.515625 121.019531 230.1875 121.085938 230.863281 C 121.15625 231.535156 121.1875 232.214844 121.1875 232.890625 Z M 121.1875 232.890625 " fill-opacity="1" fill-rule="nonzero"/></g><g clip-path="url(#9e2221ef6d)"><path fill="#ffffff" d="M 79.675781 270.15625 L 295.539062 270.15625 L 295.539062 286.71875 L 79.675781 286.71875 Z M 79.675781 270.15625 " fill-opacity="1" fill-rule="nonzero"/></g><g clip-path="url(#4025e33c91)"><path fill="#ffffff" d="M 129.492188 286.71875 L 79.675781 286.71875 L 79.675781 270.15625 C 79.675781 266.015625 82.996094 261.875 87.976562 261.875 L 109.5625 261.875 C 112.054688 261.875 113.714844 262.703125 115.375 264.359375 L 121.1875 270.15625 Z M 129.492188 286.71875 " fill-opacity="1" fill-rule="nonzero"/></g><g clip-path="url(#de5c9c7953)"><path fill="#ffffff" d="M 285.578125 240.34375 L 212.515625 236.203125 L 212.515625 228.75 L 137.792969 228.75 C 128.660156 228.75 121.1875 236.203125 121.1875 245.3125 C 121.1875 254.421875 128.660156 261.875 137.792969 261.875 L 146.09375 261.875 L 146.09375 240.34375 L 195.910156 241.171875 C 205.042969 241.171875 212.515625 244.484375 212.515625 253.59375 C 212.515625 256.90625 211.683594 259.390625 210.023438 261.875 L 284.746094 261.875 C 290.558594 261.875 295.539062 256.90625 295.539062 251.109375 C 295.539062 245.3125 291.390625 241.171875 285.578125 240.34375 Z M 285.578125 240.34375 " fill-opacity="1" fill-rule="nonzero"/></g><path fill="#ffffff" d="M 195.910156 261.875 L 137.792969 261.875 L 137.792969 239.515625 L 195.910156 245.3125 C 200.890625 245.3125 204.210938 248.625 204.210938 253.59375 C 204.210938 258.5625 200.890625 261.875 195.910156 261.875 Z M 195.910156 261.875 " fill-opacity="1" fill-rule="nonzero"/><path fill="#ffffff" d="M 265.652344 195.625 L 230.78125 195.625 C 234.101562 199.765625 235.761719 207.21875 231.609375 212.1875 C 229.121094 215.5 224.96875 217.984375 220.816406 217.984375 C 215.835938 217.984375 204.210938 212.1875 204.210938 212.1875 L 187.609375 230.40625 L 200.0625 234.546875 L 215.007812 237.859375 L 229.949219 217.984375 L 266.480469 215.5 C 271.464844 215.5 276.445312 210.53125 276.445312 205.5625 C 276.445312 200.59375 271.464844 195.625 265.652344 195.625 Z M 265.652344 195.625 " fill-opacity="1" fill-rule="nonzero"/><path fill="#ffffff" d="M 223.308594 196.453125 L 198.402344 181.546875 L 190.097656 150.90625 C 189.269531 146.765625 184.285156 144.28125 180.136719 145.109375 C 175.984375 145.9375 173.492188 150.90625 174.324219 155.046875 L 182.625 185.6875 C 183.457031 189.828125 186.777344 193.140625 190.097656 195.625 L 215.007812 210.53125 C 216.667969 211.359375 217.496094 211.359375 219.15625 211.359375 C 221.648438 211.359375 224.96875 209.703125 226.628906 207.21875 C 229.121094 203.90625 227.460938 198.9375 223.308594 196.453125 Z M 223.308594 196.453125 " fill-opacity="1" fill-rule="nonzero"/><path fill="#ffffff" d="M 198.402344 208.875 L 187.609375 201.421875 C 179.304688 194.796875 187.609375 178.234375 186.777344 173.265625 C 186.777344 173.265625 187.609375 143.453125 189.269531 150.078125 L 204.210938 180.71875 L 218.328125 187.34375 L 229.121094 187.34375 L 229.121094 164.984375 L 249.046875 187.34375 L 270.632812 187.34375 L 234.101562 143.453125 C 230.78125 140.140625 226.628906 137.65625 221.648438 137.65625 L 187.609375 137.65625 C 178.476562 137.65625 171.003906 145.109375 171.003906 154.21875 L 171.003906 220.46875 L 187.609375 220.46875 Z M 198.402344 208.875 " fill-opacity="1" fill-rule="nonzero"/></svg>