<svg xmlns="http://www.w3.org/2000/svg" xmlns:xlink="http://www.w3.org/1999/xlink" width="500" zoomAndPan="magnify" viewBox="0 0 375 374.999991" height="500" preserveAspectRatio="xMidYMid meet" version="1.0"><defs><clipPath id="ed334ec138"><path d="M 187.5 0 C 83.945312 0 0 83.945312 0 187.5 C 0 291.054688 83.945312 375 187.5 375 C 291.054688 375 375 291.054688 375 187.5 C 375 83.945312 291.054688 0 187.5 0 Z M 187.5 0 " clip-rule="nonzero"/></clipPath><clipPath id="bb67a2c7d6"><path d="M 111 62.488281 L 147 62.488281 L 147 118 L 111 118 Z M 111 62.488281 " clip-rule="nonzero"/></clipPath><clipPath id="9910328d75"><path d="M 66.238281 143 L 308 143 L 308 312.238281 L 66.238281 312.238281 Z M 66.238281 143 " clip-rule="nonzero"/></clipPath></defs><g clip-path="url(#ed334ec138)"><rect x="-37.5" width="450" fill="#000000" y="-37.499999" height="449.999989" fill-opacity="1"/></g><g clip-path="url(#bb67a2c7d6)"><path fill="#ffffff" d="M 143.8125 77.511719 C 140.71875 77.542969 137.628906 77.542969 134.535156 77.511719 C 134.550781 75.652344 134.566406 73.789062 134.582031 71.929688 C 137.703125 71.929688 140.824219 71.929688 143.945312 71.945312 C 143.886719 73.804688 143.84375 75.667969 143.8125 77.511719 Z M 146.574219 69.484375 C 144.414062 69.300781 142.234375 69.199219 140.074219 68.988281 C 141.277344 67.53125 142.714844 66.316406 144.171875 65.128906 C 143.480469 64.484375 142.820312 63.824219 142.144531 63.164062 C 141.457031 63.792969 140.074219 65.070312 139.382812 65.714844 C 138.199219 64.679688 137.074219 63.613281 135.992188 62.488281 C 129.613281 62.546875 123.21875 62.546875 116.855469 62.519531 C 114.921875 65.28125 110.867188 67.335938 111.320312 71.164062 C 111.332031 86.546875 111.347656 101.949219 111.347656 117.347656 C 112.21875 116.65625 113.148438 116.039062 114.09375 115.5 C 114.109375 101.089844 114.125 86.667969 114.109375 72.257812 C 113.511719 69.289062 116.300781 67.5 117.847656 65.398438 C 123.402344 65.429688 128.953125 65.445312 134.492188 65.386719 C 135.886719 66.570312 137.3125 67.757812 138.664062 69.003906 C 136.457031 69.183594 134.238281 69.273438 132.03125 69.453125 C 131.503906 75.816406 131.566406 82.253906 131.878906 88.632812 C 133.816406 90.390625 136.21875 91.457031 138.394531 92.882812 C 141.261719 91.921875 143.945312 90.511719 146.558594 88.996094 C 146.785156 82.496094 146.785156 75.980469 146.574219 69.484375 " fill-opacity="1" fill-rule="nonzero"/></g><path fill="#ffffff" d="M 140.523438 95.117188 C 140.734375 102.414062 141.214844 109.765625 142.207031 117.03125 C 141.230469 116.339844 140.195312 115.695312 139.128906 115.15625 C 138.289062 108.671875 137.765625 102.15625 137.988281 95.628906 C 138.632812 95.507812 139.894531 95.253906 140.523438 95.117188 " fill-opacity="1" fill-rule="nonzero"/><path fill="#ffffff" d="M 161.011719 164.65625 C 160.398438 165.015625 159.164062 165.734375 158.550781 166.109375 C 154.8125 161.878906 151.765625 157.195312 149.261719 152.199219 C 149.875 151.207031 150.429688 150.15625 150.894531 149.074219 C 153.433594 154.777344 156.988281 159.910156 161.011719 164.65625 " fill-opacity="1" fill-rule="nonzero"/><path fill="#ffffff" d="M 175.285156 70.054688 C 172.988281 70.054688 171.113281 71.914062 171.113281 74.210938 L 171.113281 123.574219 C 171.113281 125.871094 172.988281 127.734375 175.285156 127.734375 L 236.292969 127.734375 C 238.589844 127.734375 240.453125 125.871094 240.453125 123.574219 L 240.453125 74.210938 C 240.453125 71.914062 238.589844 70.054688 236.292969 70.054688 Z M 236.292969 132.730469 L 175.285156 132.730469 C 170.226562 132.730469 166.128906 128.617188 166.128906 123.574219 L 166.128906 74.210938 C 166.128906 69.167969 170.226562 65.054688 175.285156 65.054688 L 236.292969 65.054688 C 241.335938 65.054688 245.449219 69.167969 245.449219 74.210938 L 245.449219 123.574219 C 245.449219 128.617188 241.335938 132.730469 236.292969 132.730469 " fill-opacity="1" fill-rule="nonzero"/><path fill="#ffffff" d="M 227.394531 111.851562 L 223.191406 107.890625 C 223.027344 107.742188 222.785156 107.710938 222.59375 107.832031 L 216.167969 111.867188 C 215.988281 111.972656 215.761719 111.972656 215.597656 111.839844 L 212.265625 109.195312 C 212.070312 109.03125 211.800781 109.046875 211.621094 109.226562 L 208.933594 111.839844 C 208.695312 112.0625 208.304688 112.003906 208.152344 111.6875 L 203.9375 102.804688 C 203.769531 102.472656 203.335938 102.425781 203.109375 102.710938 L 196.042969 111.777344 C 195.847656 112.046875 195.441406 112.035156 195.261719 111.761719 L 192.167969 107.289062 C 192.003906 107.050781 191.644531 107.019531 191.417969 107.230469 L 186.601562 111.929688 C 186.511719 112.019531 186.390625 112.0625 186.269531 112.0625 L 168.5625 112.0625 C 168.292969 112.0625 168.066406 111.851562 168.066406 111.582031 L 168.066406 111.449219 C 168.066406 111.179688 168.292969 110.953125 168.5625 110.953125 L 185.804688 110.953125 C 185.941406 110.953125 186.0625 110.90625 186.152344 110.816406 L 191.585938 105.519531 C 191.808594 105.308594 192.15625 105.339844 192.335938 105.59375 L 195.304688 109.886719 C 195.5 110.15625 195.890625 110.171875 196.101562 109.917969 L 203.335938 100.613281 C 203.5625 100.3125 204.011719 100.371094 204.160156 100.703125 L 208.484375 109.8125 C 208.632812 110.128906 209.039062 110.1875 209.277344 109.960938 L 211.546875 107.742188 C 211.726562 107.574219 211.996094 107.5625 212.191406 107.710938 L 215.671875 110.472656 C 215.839844 110.609375 216.0625 110.621094 216.242188 110.515625 L 222.726562 106.433594 C 222.921875 106.316406 223.164062 106.34375 223.328125 106.496094 L 226.75 109.722656 C 227.019531 109.976562 227.46875 109.84375 227.558594 109.46875 L 229.554688 100.703125 C 229.660156 100.234375 230.320312 100.175781 230.5 100.625 L 234.328125 110.503906 C 234.402344 110.699219 234.582031 110.816406 234.792969 110.816406 L 242.464844 110.816406 C 242.734375 110.816406 242.945312 111.042969 242.945312 111.3125 L 242.945312 111.433594 C 242.945312 111.703125 242.734375 111.929688 242.464844 111.929688 L 234.027344 111.929688 C 233.832031 111.929688 233.652344 111.808594 233.578125 111.613281 L 230.773438 104.410156 C 230.589844 103.957031 229.945312 104.003906 229.839844 104.46875 L 228.203125 111.613281 C 228.128906 111.972656 227.679688 112.109375 227.394531 111.851562 " fill-opacity="1" fill-rule="nonzero"/><path fill="#ffffff" d="M 227.394531 100.144531 L 223.191406 96.183594 C 223.027344 96.035156 222.785156 96.003906 222.59375 96.125 L 216.167969 100.160156 C 215.988281 100.265625 215.761719 100.25 215.597656 100.132812 L 212.265625 97.472656 C 212.070312 97.324219 211.800781 97.339844 211.621094 97.503906 L 208.933594 100.117188 C 208.695312 100.355469 208.304688 100.28125 208.152344 99.980469 L 203.9375 91.097656 C 203.769531 90.75 203.335938 90.707031 203.109375 90.992188 L 196.042969 100.070312 C 195.847656 100.328125 195.441406 100.328125 195.261719 100.054688 L 192.167969 95.582031 C 192.003906 95.34375 191.644531 95.296875 191.417969 95.507812 L 186.601562 100.222656 C 186.511719 100.3125 186.390625 100.355469 186.269531 100.355469 L 168.5625 100.355469 C 168.292969 100.355469 168.066406 100.132812 168.066406 99.859375 L 168.066406 99.742188 C 168.066406 99.472656 168.292969 99.246094 168.5625 99.246094 L 185.804688 99.246094 C 185.941406 99.246094 186.0625 99.199219 186.152344 99.109375 L 191.585938 93.8125 C 191.808594 93.585938 192.15625 93.632812 192.335938 93.871094 L 195.304688 98.179688 C 195.5 98.449219 195.890625 98.464844 196.101562 98.195312 L 203.335938 88.890625 C 203.5625 88.605469 204.011719 88.648438 204.160156 88.980469 L 208.484375 98.105469 C 208.632812 98.40625 209.039062 98.480469 209.277344 98.238281 L 211.546875 96.035156 C 211.726562 95.867188 211.996094 95.855469 212.191406 96.003906 L 215.671875 98.765625 C 215.839844 98.902344 216.0625 98.914062 216.242188 98.796875 L 222.726562 94.726562 C 222.921875 94.609375 223.164062 94.636719 223.328125 94.789062 L 226.75 98 C 227.019531 98.269531 227.46875 98.136719 227.558594 97.761719 L 229.554688 88.996094 C 229.660156 88.515625 230.320312 88.46875 230.5 88.917969 L 234.328125 98.796875 C 234.402344 98.992188 234.582031 99.109375 234.792969 99.109375 L 242.464844 99.109375 C 242.734375 99.109375 242.945312 99.335938 242.945312 99.589844 L 242.945312 99.726562 C 242.945312 99.996094 242.734375 100.222656 242.464844 100.222656 L 234.027344 100.222656 C 233.832031 100.222656 233.652344 100.085938 233.578125 99.90625 L 230.773438 92.703125 C 230.589844 92.25 229.945312 92.296875 229.839844 92.761719 L 228.203125 99.890625 C 228.128906 100.265625 227.679688 100.402344 227.394531 100.144531 " fill-opacity="1" fill-rule="nonzero"/><path fill="#ffffff" d="M 227.394531 88.4375 L 223.191406 84.476562 C 223.027344 84.3125 222.785156 84.296875 222.59375 84.417969 L 216.167969 88.453125 C 215.988281 88.558594 215.761719 88.542969 215.597656 88.410156 L 212.265625 85.765625 C 212.070312 85.617188 211.800781 85.632812 211.621094 85.796875 L 208.933594 88.410156 C 208.695312 88.648438 208.304688 88.574219 208.152344 88.273438 L 203.9375 79.375 C 203.769531 79.042969 203.335938 79 203.109375 79.285156 L 196.042969 88.363281 C 195.847656 88.621094 195.441406 88.605469 195.261719 88.335938 L 192.167969 83.875 C 192.003906 83.621094 191.644531 83.589844 191.417969 83.800781 L 186.601562 88.515625 C 186.511719 88.589844 186.390625 88.648438 186.269531 88.648438 L 168.5625 88.648438 C 168.292969 88.648438 168.066406 88.425781 168.066406 88.152344 L 168.066406 88.035156 C 168.066406 87.765625 168.292969 87.539062 168.5625 87.539062 L 185.804688 87.539062 C 185.941406 87.539062 186.0625 87.492188 186.152344 87.386719 L 191.585938 82.089844 C 191.808594 81.878906 192.15625 81.910156 192.335938 82.164062 L 195.304688 86.457031 C 195.5 86.742188 195.890625 86.742188 196.101562 86.488281 L 203.335938 77.183594 C 203.5625 76.898438 204.011719 76.941406 204.160156 77.273438 L 208.484375 86.398438 C 208.632812 86.699219 209.039062 86.773438 209.277344 86.53125 L 211.546875 84.328125 C 211.726562 84.160156 211.996094 84.148438 212.191406 84.296875 L 215.671875 87.058594 C 215.839844 87.195312 216.0625 87.195312 216.242188 87.089844 L 222.726562 83.019531 C 222.921875 82.902344 223.164062 82.929688 223.328125 83.082031 L 226.75 86.292969 C 227.019531 86.5625 227.46875 86.414062 227.558594 86.054688 L 229.554688 77.273438 C 229.660156 76.808594 230.320312 76.761719 230.5 77.210938 L 234.328125 87.089844 C 234.402344 87.269531 234.582031 87.402344 234.792969 87.402344 L 242.464844 87.402344 C 242.734375 87.402344 242.945312 87.613281 242.945312 87.882812 L 242.945312 88.019531 C 242.945312 88.289062 242.734375 88.515625 242.464844 88.515625 L 234.027344 88.515625 C 233.832031 88.515625 233.652344 88.378906 233.578125 88.199219 L 230.773438 80.980469 C 230.589844 80.53125 229.945312 80.589844 229.839844 81.054688 L 228.203125 88.183594 C 228.128906 88.558594 227.679688 88.695312 227.394531 88.4375 " fill-opacity="1" fill-rule="nonzero"/><path fill="#ffffff" d="M 179.609375 118.472656 C 179.609375 118.652344 179.515625 118.816406 179.382812 118.90625 L 179.261719 118.984375 L 179.246094 118.984375 C 179.1875 119.011719 179.128906 119.027344 179.050781 119.027344 L 169.898438 119.027344 C 169.597656 119.027344 169.339844 118.773438 169.339844 118.472656 C 169.339844 118.171875 169.597656 117.917969 169.898438 117.917969 L 179.050781 117.917969 C 179.351562 117.917969 179.609375 118.171875 179.609375 118.472656 " fill-opacity="1" fill-rule="nonzero"/><path fill="#ffffff" d="M 242.027344 118.863281 C 242.027344 119.164062 241.773438 119.417969 241.472656 119.417969 L 227.320312 119.417969 C 227.109375 119.417969 226.914062 119.296875 226.824219 119.101562 L 226.207031 117.796875 C 226.058594 117.480469 225.652344 117.375 225.367188 117.601562 L 223.042969 119.386719 C 222.9375 119.460938 222.832031 119.507812 222.695312 119.507812 L 210.960938 119.417969 C 210.871094 119.417969 210.78125 119.386719 210.691406 119.34375 L 207.492188 117.558594 C 207.3125 117.453125 207.089844 117.453125 206.921875 117.570312 L 204.144531 119.417969 C 203.90625 119.582031 203.574219 119.523438 203.394531 119.28125 L 202.71875 118.320312 C 202.527344 118.066406 202.148438 118.023438 201.910156 118.230469 L 200.605469 119.371094 C 200.347656 119.597656 199.960938 119.539062 199.777344 119.269531 L 199.492188 118.816406 C 199.359375 118.621094 199.105469 118.53125 198.878906 118.59375 L 195.953125 119.386719 C 195.652344 119.476562 195.351562 119.296875 195.261719 119.011719 L 194.511719 116.175781 C 194.390625 115.710938 193.777344 115.605469 193.519531 116.011719 L 191.359375 119.175781 C 191.132812 119.523438 190.59375 119.492188 190.414062 119.101562 L 189.304688 116.894531 C 189.121094 116.519531 188.597656 116.492188 188.359375 116.835938 L 186.738281 119.175781 C 186.511719 119.507812 186.015625 119.492188 185.804688 119.132812 L 184.410156 116.746094 C 184.261719 116.492188 183.929688 116.402344 183.660156 116.535156 L 179.382812 118.90625 L 179.261719 118.984375 L 179.246094 118.984375 C 179.1875 119.011719 179.128906 119.027344 179.050781 119.027344 L 178.480469 119.027344 C 178.421875 118.984375 178.375 118.921875 178.332031 118.863281 C 178.285156 118.773438 178.257812 118.683594 178.257812 118.59375 C 178.257812 118.398438 178.363281 118.203125 178.558594 118.113281 L 178.886719 117.917969 L 184.078125 115.050781 C 184.335938 114.898438 184.664062 114.988281 184.832031 115.261719 L 185.882812 117.078125 C 186.089844 117.421875 186.585938 117.453125 186.8125 117.105469 L 188.507812 114.660156 C 188.746094 114.316406 189.273438 114.34375 189.453125 114.734375 L 190.546875 116.925781 C 190.742188 117.300781 191.269531 117.332031 191.507812 116.984375 L 193.957031 113.371094 C 194.226562 112.980469 194.824219 113.082031 194.960938 113.535156 L 196.042969 117.648438 C 196.132812 117.933594 196.433594 118.113281 196.730469 118.035156 L 199.359375 117.300781 C 199.582031 117.242188 199.824219 117.332031 199.960938 117.542969 L 200.003906 117.585938 C 200.183594 117.871094 200.574219 117.917969 200.828125 117.707031 L 202.089844 116.597656 C 202.34375 116.371094 202.71875 116.414062 202.914062 116.6875 L 203.667969 117.75 C 203.847656 118.007812 204.175781 118.066406 204.429688 117.902344 L 206.863281 116.265625 C 207.042969 116.160156 207.269531 116.144531 207.449219 116.25 L 210.992188 118.246094 C 211.066406 118.292969 211.15625 118.308594 211.246094 118.308594 L 222.320312 118.398438 C 222.441406 118.398438 222.578125 118.351562 222.667969 118.277344 L 225.789062 115.875 C 226.058594 115.664062 226.480469 115.753906 226.628906 116.085938 L 227.53125 117.992188 C 227.621094 118.1875 227.816406 118.308594 228.023438 118.308594 L 241.472656 118.308594 C 241.773438 118.308594 242.027344 118.5625 242.027344 118.863281 " fill-opacity="1" fill-rule="nonzero"/><path fill="#ffffff" d="M 122.183594 114.808594 C 133.320312 112.347656 145.476562 118.996094 149.394531 129.699219 C 152.878906 138.523438 150.507812 149.285156 143.527344 155.769531 C 138.574219 160.4375 131.609375 162.957031 124.796875 162.269531 C 114.695312 161.457031 105.707031 153.59375 103.605469 143.671875 C 100.183594 131.078125 109.457031 117.167969 122.183594 114.808594 " fill-opacity="1" fill-rule="nonzero"/><g clip-path="url(#9910328d75)"><path fill="#ffffff" d="M 67.089844 156.007812 C 67.570312 149.992188 72.640625 144.828125 78.554688 143.957031 C 83.929688 142.785156 89.074219 145.820312 92.589844 149.660156 C 120.5625 177.039062 148.660156 204.324219 176.621094 231.746094 C 192.441406 231.714844 208.257812 231.761719 224.078125 231.730469 C 227.875 231.746094 231.808594 231.445312 235.410156 232.839844 C 256.136719 239.925781 276.953125 246.769531 297.695312 253.839844 C 304.058594 255.804688 308.394531 262.589844 307.148438 269.207031 C 306.339844 277.539062 296.75 283.167969 289.019531 280.210938 C 269.269531 273.648438 249.546875 266.957031 229.8125 260.335938 C 226.71875 259.226562 223.371094 259.675781 220.160156 259.632812 C 220.144531 271.265625 220.160156 282.910156 220.160156 294.558594 C 227.800781 294.542969 235.453125 294.542969 243.09375 294.558594 C 243.378906 300.441406 243.542969 306.355469 243.035156 312.238281 L 157.859375 312.238281 C 157.785156 306.414062 157.800781 300.589844 157.84375 294.769531 C 164.3125 294.378906 170.8125 294.617188 177.296875 294.574219 C 177.328125 282.910156 177.328125 271.265625 177.296875 259.617188 C 172.882812 259.601562 168.140625 260.050781 164.179688 257.726562 C 160.773438 255.699219 158.25 252.578125 155.414062 249.890625 C 127.332031 222.53125 99.296875 195.125 71.230469 167.746094 C 68.09375 164.746094 66.546875 160.316406 67.089844 156.007812 " fill-opacity="1" fill-rule="nonzero"/></g><path fill="#ffffff" d="M 140.195312 163.484375 C 145.164062 158.292969 154.363281 158.171875 159.480469 163.214844 C 170.664062 174.003906 181.902344 184.753906 193.054688 195.574219 C 208.109375 195.484375 223.175781 195.574219 238.246094 195.527344 C 241.230469 195.453125 244.234375 195.933594 247.039062 197.03125 C 263.160156 203.183594 279.292969 209.351562 295.441406 215.476562 C 299.464844 216.8125 303.234375 219.484375 304.929688 223.492188 C 307.601562 229.433594 305.589844 237.195312 299.992188 240.691406 C 296.207031 243.347656 291.105469 243.722656 286.875 241.980469 C 271.085938 235.960938 255.265625 229.972656 239.492188 223.910156 C 238.425781 223.519531 237.332031 223.339844 236.191406 223.398438 C 220.011719 223.414062 203.847656 223.445312 187.667969 223.398438 C 183.507812 223.640625 179.652344 221.523438 176.832031 218.613281 C 164.570312 206.648438 152.066406 194.929688 139.894531 182.875 C 134.777344 177.726562 134.925781 168.46875 140.195312 163.484375 " fill-opacity="1" fill-rule="nonzero"/></svg>