<?xml version="1.0" standalone="no"?>
<!DOCTYPE svg PUBLIC "-//W3C//DTD SVG 20010904//EN"
 "http://www.w3.org/TR/2001/REC-SVG-20010904/DTD/svg10.dtd">
<svg version="1.0" xmlns="http://www.w3.org/2000/svg"
 width="380.000000pt" height="422.000000pt" viewBox="0 0 380.000000 422.000000"
 preserveAspectRatio="xMidYMid meet">

<g transform="translate(0.000000,422.000000) scale(0.100000,-0.100000)"
fill="#000000" stroke="none">
<path d="M99 2113 c65 -121 624 -1079 630 -1081 6 -2 549 927 638 1091 2 4
-284 7 -637 7 -607 0 -640 -1 -631 -17z"/>
<path d="M2552 1932 c-61 -108 -206 -359 -320 -557 l-208 -360 -648 -5 -648
-5 -225 -390 c-124 -214 -228 -396 -230 -402 -4 -10 222 -13 1109 -13 l1114 0
457 792 c251 436 501 871 556 966 l100 172 -472 0 -472 -1 -113 -197z"/>
<path d="M3580 1386 c-221 -59 -381 -194 -485 -410 -109 -225 -124 -471 -39
-638 59 -117 193 -212 342 -243 86 -18 249 -20 339 -4 l63 11 0 140 c0 129 -1
140 -17 133 -73 -28 -166 -31 -247 -8 -184 51 -241 275 -131 508 63 132 209
244 340 260 l55 7 0 134 0 134 -67 0 c-38 -1 -106 -11 -153 -24z"/>
</g>
</svg>
